<svg width="50" height="84" viewBox="0 0 50 84" fill="none" xmlns="http://www.w3.org/2000/svg">
    <g clip-path="url(#clip0_2_1654)">
        <path d="M4.02022 42.1003H1.50293V34.0699H4.02022" fill="#010066"/>
        <path d="M0.893932 34.0699H1.45871V42.1003H0.893932L0 41.2074V34.9627" fill="#010066"/>
        <path d="M7.18319 42.1006H6.61841V34.0702H7.18319L8.07712 34.963V41.2077" fill="#010066"/>
        <path d="M4.05701 34.0702H6.57429V42.1006H4.05701" fill="#010066"/>
    </g>
    <g clip-path="url(#clip1_2_1654)">
        <path d="M12.4001 42.1003H9.88281V34.0699H12.4001" fill="#010066"/>
        <path d="M9.27381 34.0699H9.83859V42.1003H9.27381L8.37988 41.2074V34.9627" fill="#010066"/>
        <path d="M15.5631 42.1006H14.9983V34.0702H15.5631L16.457 34.963V41.2077" fill="#010066"/>
        <path d="M12.4369 34.0702H14.9542V42.1006H12.4369" fill="#010066"/>
    </g>
    <g clip-path="url(#clip2_2_1654)">
        <path d="M20.78 42.1003H18.2627V34.0699H20.78" fill="#010066"/>
        <path d="M17.6537 34.0699H18.2185V42.1003H17.6537L16.7598 41.2074V34.9627" fill="#010066"/>
        <path d="M23.943 42.1006H23.3782V34.0702H23.943L24.8369 34.963V41.2077" fill="#010066"/>
        <path d="M20.8168 34.0702H23.3341V42.1006H20.8168" fill="#010066"/>
    </g>
    <g clip-path="url(#clip3_2_1654)">
        <path d="M29.1598 42.1003H26.6425V34.0699H29.1598" fill="#010066"/>
        <path d="M26.0336 34.0699H26.5984V42.1003H26.0336L25.1396 41.2074V34.9627" fill="#010066"/>
        <path d="M32.3229 42.1006H31.7581V34.0702H32.3229L33.2168 34.963V41.2077" fill="#010066"/>
        <path d="M29.1967 34.0702H31.7139V42.1006H29.1967" fill="#010066"/>
    </g>
    <g clip-path="url(#clip4_2_1654)">
        <path d="M37.5397 42.1003H35.0225V34.0699H37.5397" fill="#010066"/>
        <path d="M34.4135 34.0699H34.9783V42.1003H34.4135L33.5196 41.2074V34.9627" fill="#010066"/>
        <path d="M40.7028 42.1006H40.1381V34.0702H40.7028L41.5968 34.963V41.2077" fill="#010066"/>
        <path d="M37.5766 34.0702H40.0939V42.1006H37.5766" fill="#010066"/>
    </g>
    <g clip-path="url(#clip5_2_1654)">
        <path d="M45.9197 42.1003H43.4024V34.0699H45.9197" fill="#010066"/>
        <path d="M42.7934 34.0699H43.3582V42.1003H42.7934L41.8995 41.2074V34.9627" fill="#010066"/>
        <path d="M49.0827 42.1006H48.5179V34.0702H49.0827L49.9767 34.963V41.2077" fill="#010066"/>
        <path d="M45.9565 34.0702H48.4737V42.1006H45.9565" fill="#010066"/>
    </g>
    <g clip-path="url(#clip6_2_1654)">
        <path d="M4.02022 16.9606H1.50293V8.93018L4.02022 8.93018" fill="#010066"/>
        <path d="M0.893932 8.93018L1.45871 8.93018V16.9606H0.893932L0 16.0677V9.823" fill="#010066"/>
        <path d="M7.18319 16.9609H6.61841V8.93051H7.18319L8.07712 9.82333V16.0681" fill="#010066"/>
        <path d="M4.05701 8.93051H6.57429V16.9609H4.05701" fill="#010066"/>
    </g>
    <g clip-path="url(#clip7_2_1654)">
        <path d="M12.4001 16.9606H9.88281V8.93018L12.4001 8.93018" fill="#010066"/>
        <path d="M9.27381 8.93018L9.83859 8.93018V16.9606H9.27381L8.37988 16.0677V9.823" fill="#010066"/>
        <path d="M15.5631 16.9609H14.9983V8.93051H15.5631L16.457 9.82333V16.0681" fill="#010066"/>
        <path d="M12.4369 8.93051H14.9542V16.9609H12.4369" fill="#010066"/>
    </g>
    <g clip-path="url(#clip8_2_1654)">
        <path d="M20.78 16.9606H18.2627V8.93018L20.78 8.93018" fill="#010066"/>
        <path d="M17.6537 8.93018L18.2185 8.93018V16.9606H17.6537L16.7598 16.0677V9.823" fill="#010066"/>
        <path d="M23.943 16.9609H23.3782V8.93051H23.943L24.8369 9.82333V16.0681" fill="#010066"/>
        <path d="M20.8168 8.93051H23.3341V16.9609H20.8168" fill="#010066"/>
    </g>
    <g clip-path="url(#clip9_2_1654)">
        <path d="M29.1598 16.9606H26.6425V8.93018L29.1598 8.93018" fill="#010066"/>
        <path d="M26.0336 8.93018L26.5984 8.93018V16.9606H26.0336L25.1396 16.0677V9.823" fill="#010066"/>
        <path d="M32.3229 16.9609H31.7581V8.93051H32.3229L33.2168 9.82333V16.0681" fill="#010066"/>
        <path d="M29.1967 8.93051H31.7139V16.9609H29.1967" fill="#010066"/>
    </g>
    <g clip-path="url(#clip10_2_1654)">
        <path d="M37.5397 16.9606H35.0225V8.93018L37.5397 8.93018" fill="#010066"/>
        <path d="M34.4135 8.93018L34.9783 8.93018V16.9606H34.4135L33.5196 16.0677V9.823" fill="#010066"/>
        <path d="M40.7028 16.9609H40.1381V8.93051H40.7028L41.5968 9.82333V16.0681" fill="#010066"/>
        <path d="M37.5766 8.93051H40.0939V16.9609H37.5766" fill="#010066"/>
    </g>
    <g clip-path="url(#clip11_2_1654)">
        <path d="M45.9197 16.9606H43.4024V8.93018L45.9197 8.93018" fill="#010066"/>
        <path d="M42.7934 8.93018L43.3582 8.93018V16.9606H42.7934L41.8995 16.0677V9.823" fill="#010066"/>
        <path d="M49.0827 16.9609H48.5179V8.93051H49.0827L49.9767 9.82333V16.0681" fill="#010066"/>
        <path d="M45.9565 8.93051H48.4737V16.9609H45.9565" fill="#010066"/>
    </g>
    <g clip-path="url(#clip12_2_1654)">
        <path d="M4.02022 8.58067H1.50293V0.550293L4.02022 0.550293" fill="#010066"/>
        <path d="M0.893932 0.550293L1.45871 0.550293V8.58067H0.893932L0 7.68785V1.44312" fill="#010066"/>
        <path d="M7.18319 8.58103H6.61841V0.550659H7.18319L8.07712 1.44348V7.68821" fill="#010066"/>
        <path d="M4.05701 0.550659H6.57429V8.58103H4.05701" fill="#010066"/>
    </g>
    <g clip-path="url(#clip13_2_1654)">
        <path d="M12.4001 8.58067H9.88281V0.550293L12.4001 0.550293" fill="#010066"/>
        <path d="M9.27381 0.550293L9.83859 0.550293V8.58067H9.27381L8.37988 7.68785V1.44312" fill="#010066"/>
        <path d="M15.5631 8.58103H14.9983V0.550659H15.5631L16.457 1.44348V7.68821" fill="#010066"/>
        <path d="M12.4369 0.550659H14.9542V8.58103H12.4369" fill="#010066"/>
    </g>
    <g clip-path="url(#clip14_2_1654)">
        <path d="M20.78 8.58067H18.2627V0.550293L20.78 0.550293" fill="#010066"/>
        <path d="M17.6537 0.550293L18.2185 0.550293V8.58067H17.6537L16.7598 7.68785V1.44312" fill="#010066"/>
        <path d="M23.943 8.58103H23.3782V0.550659H23.943L24.8369 1.44348V7.68821" fill="#010066"/>
        <path d="M20.8168 0.550659H23.3341V8.58103H20.8168" fill="#010066"/>
    </g>
    <g clip-path="url(#clip15_2_1654)">
        <path d="M29.1598 8.58067H26.6425V0.550293L29.1598 0.550293" fill="#010066"/>
        <path d="M26.0336 0.550293L26.5984 0.550293V8.58067H26.0336L25.1396 7.68785V1.44312" fill="#010066"/>
        <path d="M32.3229 8.58103H31.7581V0.550659H32.3229L33.2168 1.44348V7.68821" fill="#010066"/>
        <path d="M29.1967 0.550659H31.7139V8.58103H29.1967" fill="#010066"/>
    </g>
    <g clip-path="url(#clip16_2_1654)">
        <path d="M37.5397 8.58067H35.0225V0.550293L37.5397 0.550293" fill="#010066"/>
        <path d="M34.4135 0.550293L34.9783 0.550293V8.58067H34.4135L33.5196 7.68785V1.44312" fill="#010066"/>
        <path d="M40.7028 8.58103H40.1381V0.550659H40.7028L41.5968 1.44348V7.68821" fill="#010066"/>
        <path d="M37.5766 0.550659H40.0939V8.58103H37.5766" fill="#010066"/>
    </g>
    <g clip-path="url(#clip17_2_1654)">
        <path d="M45.9197 8.58067H43.4024V0.550293L45.9197 0.550293" fill="#010066"/>
        <path d="M42.7934 0.550293L43.3582 0.550293V8.58067H42.7934L41.8995 7.68785V1.44312" fill="#010066"/>
        <path d="M49.0827 8.58103H48.5179V0.550659H49.0827L49.9767 1.44348V7.68821" fill="#010066"/>
        <path d="M45.9565 0.550659H48.4737V8.58103H45.9565" fill="#010066"/>
    </g>
    <g clip-path="url(#clip18_2_1654)">
        <path d="M4.02022 25.3404H1.50293V17.3101H4.02022" fill="#010066"/>
        <path d="M0.893932 17.3101H1.45871V25.3404H0.893932L0 24.4476V18.2029" fill="#010066"/>
        <path d="M7.18319 25.3407H6.61841V17.3104H7.18319L8.07712 18.2032V24.4479" fill="#010066"/>
        <path d="M4.05701 17.3104H6.57429V25.3407H4.05701" fill="#010066"/>
    </g>
    <g clip-path="url(#clip19_2_1654)">
        <path d="M12.4001 25.3404H9.88281V17.3101H12.4001" fill="#010066"/>
        <path d="M9.27381 17.3101H9.83859V25.3404H9.27381L8.37988 24.4476V18.2029" fill="#010066"/>
        <path d="M15.5631 25.3407H14.9983V17.3104H15.5631L16.457 18.2032V24.4479" fill="#010066"/>
        <path d="M12.4369 17.3104H14.9542V25.3407H12.4369" fill="#010066"/>
    </g>
    <g clip-path="url(#clip20_2_1654)">
        <path d="M20.78 25.3404H18.2627V17.3101H20.78" fill="#010066"/>
        <path d="M17.6537 17.3101H18.2185V25.3404H17.6537L16.7598 24.4476V18.2029" fill="#010066"/>
        <path d="M23.943 25.3407H23.3782V17.3104H23.943L24.8369 18.2032V24.4479" fill="#010066"/>
        <path d="M20.8168 17.3104H23.3341V25.3407H20.8168" fill="#010066"/>
    </g>
    <g clip-path="url(#clip21_2_1654)">
        <path d="M29.1598 25.3404H26.6425V17.3101H29.1598" fill="#010066"/>
        <path d="M26.0336 17.3101H26.5984V25.3404H26.0336L25.1396 24.4476V18.2029" fill="#010066"/>
        <path d="M32.3229 25.3407H31.7581V17.3104H32.3229L33.2168 18.2032V24.4479" fill="#010066"/>
        <path d="M29.1967 17.3104H31.7139V25.3407H29.1967" fill="#010066"/>
    </g>
    <g clip-path="url(#clip22_2_1654)">
        <path d="M37.5397 25.3404H35.0225V17.3101H37.5397" fill="#010066"/>
        <path d="M34.4135 17.3101H34.9783V25.3404H34.4135L33.5196 24.4476V18.2029" fill="#010066"/>
        <path d="M40.7028 25.3407H40.1381V17.3104H40.7028L41.5968 18.2032V24.4479" fill="#010066"/>
        <path d="M37.5766 17.3104H40.0939V25.3407H37.5766" fill="#010066"/>
    </g>
    <g clip-path="url(#clip23_2_1654)">
        <path d="M45.9197 25.3404H43.4024V17.3101H45.9197" fill="#010066"/>
        <path d="M42.7934 17.3101H43.3582V25.3404H42.7934L41.8995 24.4476V18.2029" fill="#010066"/>
        <path d="M49.0827 25.3407H48.5179V17.3104H49.0827L49.9767 18.2032V24.4479" fill="#010066"/>
        <path d="M45.9565 17.3104H48.4737V25.3407H45.9565" fill="#010066"/>
    </g>
    <g clip-path="url(#clip24_2_1654)">
        <path d="M4.02022 33.7203H1.50293V25.6899H4.02022" fill="#010066"/>
        <path d="M0.893932 25.6899H1.45871V33.7203H0.893932L0 32.8275V26.5828" fill="#010066"/>
        <path d="M7.18319 33.7206H6.61841V25.6902H7.18319L8.07712 26.5831V32.8278" fill="#010066"/>
        <path d="M4.05701 25.6902H6.57429V33.7206H4.05701" fill="#010066"/>
        <g clip-path="url(#clip25_2_1654)">
            <path d="M4.02022 33.7203H1.50293V25.6899H4.02022" fill="#010066"/>
            <path d="M0.893932 25.6899H1.45871V33.7203H0.893932L0 32.8275V26.5828" fill="#010066"/>
            <path d="M7.18319 33.7206H6.61841V25.6902H7.18319L8.07712 26.5831V32.8278" fill="#010066"/>
            <path d="M4.05701 25.6902H6.57429V33.7206H4.05701" fill="#010066"/>
        </g>
    </g>
    <g clip-path="url(#clip26_2_1654)">
        <path d="M12.4001 33.7203H9.88281V25.6899H12.4001" fill="#010066"/>
        <path d="M9.27381 25.6899H9.83859V33.7203H9.27381L8.37988 32.8275V26.5828" fill="#010066"/>
        <path d="M15.5631 33.7206H14.9983V25.6902H15.5631L16.457 26.5831V32.8278" fill="#010066"/>
        <path d="M12.4369 25.6902H14.9542V33.7206H12.4369" fill="#010066"/>
        <g clip-path="url(#clip27_2_1654)">
            <path d="M12.4001 33.7203H9.88281V25.6899H12.4001" fill="#010066"/>
            <path d="M9.27381 25.6899H9.83859V33.7203H9.27381L8.37988 32.8275V26.5828" fill="#010066"/>
            <path d="M15.5631 33.7206H14.9983V25.6902H15.5631L16.457 26.5831V32.8278" fill="#010066"/>
            <path d="M12.4369 25.6902H14.9542V33.7206H12.4369" fill="#010066"/>
        </g>
    </g>
    <g clip-path="url(#clip28_2_1654)">
        <path d="M20.78 33.7203H18.2627V25.6899H20.78" fill="#010066"/>
        <path d="M17.6537 25.6899H18.2185V33.7203H17.6537L16.7598 32.8275V26.5828" fill="#010066"/>
        <path d="M23.943 33.7206H23.3782V25.6902H23.943L24.8369 26.5831V32.8278" fill="#010066"/>
        <path d="M20.8168 25.6902H23.3341V33.7206H20.8168" fill="#010066"/>
        <g clip-path="url(#clip29_2_1654)">
            <path d="M20.78 33.7203H18.2627V25.6899H20.78" fill="#010066"/>
            <path d="M17.6537 25.6899H18.2185V33.7203H17.6537L16.7598 32.8275V26.5828" fill="#010066"/>
            <path d="M23.943 33.7206H23.3782V25.6902H23.943L24.8369 26.5831V32.8278" fill="#010066"/>
            <path d="M20.8168 25.6902H23.3341V33.7206H20.8168" fill="#010066"/>
        </g>
    </g>
    <g clip-path="url(#clip30_2_1654)">
        <path d="M29.1598 33.7203H26.6425V25.6899H29.1598" fill="#010066"/>
        <path d="M26.0336 25.6899H26.5984V33.7203H26.0336L25.1396 32.8275V26.5828" fill="#010066"/>
        <path d="M32.3229 33.7206H31.7581V25.6902H32.3229L33.2168 26.5831V32.8278" fill="#010066"/>
        <path d="M29.1967 25.6902H31.7139V33.7206H29.1967" fill="#010066"/>
        <g clip-path="url(#clip31_2_1654)">
            <path d="M29.1598 33.7203H26.6425V25.6899H29.1598" fill="#010066"/>
            <path d="M26.0336 25.6899H26.5984V33.7203H26.0336L25.1396 32.8275V26.5828" fill="#010066"/>
            <path d="M32.3229 33.7206H31.7581V25.6902H32.3229L33.2168 26.5831V32.8278" fill="#010066"/>
            <path d="M29.1967 25.6902H31.7139V33.7206H29.1967" fill="#010066"/>
        </g>
    </g>
    <g clip-path="url(#clip32_2_1654)">
        <path d="M37.5397 33.7203H35.0225V25.6899H37.5397" fill="#010066"/>
        <path d="M34.4135 25.6899H34.9783V33.7203H34.4135L33.5196 32.8275V26.5828" fill="#010066"/>
        <path d="M40.7028 33.7206H40.1381V25.6902H40.7028L41.5968 26.5831V32.8278" fill="#010066"/>
        <path d="M37.5766 25.6902H40.0939V33.7206H37.5766" fill="#010066"/>
        <g clip-path="url(#clip33_2_1654)">
            <path d="M37.5397 33.7203H35.0225V25.6899H37.5397" fill="#010066"/>
            <path d="M34.4135 25.6899H34.9783V33.7203H34.4135L33.5196 32.8275V26.5828" fill="#010066"/>
            <path d="M40.7028 33.7206H40.1381V25.6902H40.7028L41.5968 26.5831V32.8278" fill="#010066"/>
            <path d="M37.5766 25.6902H40.0939V33.7206H37.5766" fill="#010066"/>
        </g>
    </g>
    <g clip-path="url(#clip34_2_1654)">
        <path d="M45.9197 33.7203H43.4024V25.6899H45.9197" fill="#010066"/>
        <path d="M42.7934 25.6899H43.3582V33.7203H42.7934L41.8995 32.8275V26.5828" fill="#010066"/>
        <path d="M49.0827 33.7206H48.5179V25.6902H49.0827L49.9767 26.5831V32.8278" fill="#010066"/>
        <path d="M45.9565 25.6902H48.4737V33.7206H45.9565" fill="#010066"/>
        <g clip-path="url(#clip35_2_1654)">
            <path d="M45.9197 33.7203H43.4024V25.6899H45.9197" fill="#010066"/>
            <path d="M42.7934 25.6899H43.3582V33.7203H42.7934L41.8995 32.8275V26.5828" fill="#010066"/>
            <path d="M49.0827 33.7206H48.5179V25.6902H49.0827L49.9767 26.5831V32.8278" fill="#010066"/>
            <path d="M45.9565 25.6902H48.4737V33.7206H45.9565" fill="#010066"/>
        </g>
    </g>
    <g clip-path="url(#clip36_2_1654)">
        <path d="M4.02022 42.1003H1.50293V34.0699H4.02022" fill="#010066"/>
        <path d="M0.893932 34.0699H1.45871V42.1003H0.893932L0 41.2074V34.9627" fill="#010066"/>
        <path d="M7.18319 42.1006H6.61841V34.0702H7.18319L8.07712 34.963V41.2077" fill="#010066"/>
        <path d="M4.05701 34.0702H6.57429V42.1006H4.05701" fill="#010066"/>
    </g>
    <g clip-path="url(#clip37_2_1654)">
        <path d="M12.4001 42.1003H9.88281V34.0699H12.4001" fill="#010066"/>
        <path d="M9.27381 34.0699H9.83859V42.1003H9.27381L8.37988 41.2074V34.9627" fill="#010066"/>
        <path d="M15.5631 42.1006H14.9983V34.0702H15.5631L16.457 34.963V41.2077" fill="#010066"/>
        <path d="M12.4369 34.0702H14.9542V42.1006H12.4369" fill="#010066"/>
    </g>
    <g clip-path="url(#clip38_2_1654)">
        <path d="M20.78 42.1003H18.2627V34.0699H20.78" fill="#010066"/>
        <path d="M17.6537 34.0699H18.2185V42.1003H17.6537L16.7598 41.2074V34.9627" fill="#010066"/>
        <path d="M23.943 42.1006H23.3782V34.0702H23.943L24.8369 34.963V41.2077" fill="#010066"/>
        <path d="M20.8168 34.0702H23.3341V42.1006H20.8168" fill="#010066"/>
    </g>
    <g clip-path="url(#clip39_2_1654)">
        <path d="M29.1598 42.1003H26.6425V34.0699H29.1598" fill="#010066"/>
        <path d="M26.0336 34.0699H26.5984V42.1003H26.0336L25.1396 41.2074V34.9627" fill="#010066"/>
        <path d="M32.3229 42.1006H31.7581V34.0702H32.3229L33.2168 34.963V41.2077" fill="#010066"/>
        <path d="M29.1967 34.0702H31.7139V42.1006H29.1967" fill="#010066"/>
    </g>
    <g clip-path="url(#clip40_2_1654)">
        <path d="M37.5397 42.1003H35.0225V34.0699H37.5397" fill="#010066"/>
        <path d="M34.4135 34.0699H34.9783V42.1003H34.4135L33.5196 41.2074V34.9627" fill="#010066"/>
        <path d="M40.7028 42.1006H40.1381V34.0702H40.7028L41.5968 34.963V41.2077" fill="#010066"/>
        <path d="M37.5766 34.0702H40.0939V42.1006H37.5766" fill="#010066"/>
    </g>
    <g clip-path="url(#clip41_2_1654)">
        <path d="M45.9197 42.1003H43.4024V34.0699H45.9197" fill="#010066"/>
        <path d="M42.7934 34.0699H43.3582V42.1003H42.7934L41.8995 41.2074V34.9627" fill="#010066"/>
        <path d="M49.0827 42.1006H48.5179V34.0702H49.0827L49.9767 34.963V41.2077" fill="#010066"/>
        <path d="M45.9565 34.0702H48.4737V42.1006H45.9565" fill="#010066"/>
    </g>
    <g clip-path="url(#clip42_2_1654)">
        <path d="M4.02022 16.9606H1.50293V8.93018L4.02022 8.93018" fill="#010066"/>
        <path d="M0.893932 8.93018L1.45871 8.93018V16.9606H0.893932L0 16.0677V9.823" fill="#010066"/>
        <path d="M7.18319 16.9609H6.61841V8.93051H7.18319L8.07712 9.82333V16.0681" fill="#010066"/>
        <path d="M4.05701 8.93051H6.57429V16.9609H4.05701" fill="#010066"/>
    </g>
    <g clip-path="url(#clip43_2_1654)">
        <path d="M12.4001 16.9606H9.88281V8.93018L12.4001 8.93018" fill="#010066"/>
        <path d="M9.27381 8.93018L9.83859 8.93018V16.9606H9.27381L8.37988 16.0677V9.823" fill="#010066"/>
        <path d="M15.5631 16.9609H14.9983V8.93051H15.5631L16.457 9.82333V16.0681" fill="#010066"/>
        <path d="M12.4369 8.93051H14.9542V16.9609H12.4369" fill="#010066"/>
    </g>
    <g clip-path="url(#clip44_2_1654)">
        <path d="M20.78 16.9606H18.2627V8.93018L20.78 8.93018" fill="#010066"/>
        <path d="M17.6537 8.93018L18.2185 8.93018V16.9606H17.6537L16.7598 16.0677V9.823" fill="#010066"/>
        <path d="M23.943 16.9609H23.3782V8.93051H23.943L24.8369 9.82333V16.0681" fill="#010066"/>
        <path d="M20.8168 8.93051H23.3341V16.9609H20.8168" fill="#010066"/>
    </g>
    <g clip-path="url(#clip45_2_1654)">
        <path d="M29.1598 16.9606H26.6425V8.93018L29.1598 8.93018" fill="#010066"/>
        <path d="M26.0336 8.93018L26.5984 8.93018V16.9606H26.0336L25.1396 16.0677V9.823" fill="#010066"/>
        <path d="M32.3229 16.9609H31.7581V8.93051H32.3229L33.2168 9.82333V16.0681" fill="#010066"/>
        <path d="M29.1967 8.93051H31.7139V16.9609H29.1967" fill="#010066"/>
    </g>
    <g clip-path="url(#clip46_2_1654)">
        <path d="M37.5397 16.9606H35.0225V8.93018L37.5397 8.93018" fill="#010066"/>
        <path d="M34.4135 8.93018L34.9783 8.93018V16.9606H34.4135L33.5196 16.0677V9.823" fill="#010066"/>
        <path d="M40.7028 16.9609H40.1381V8.93051H40.7028L41.5968 9.82333V16.0681" fill="#010066"/>
        <path d="M37.5766 8.93051H40.0939V16.9609H37.5766" fill="#010066"/>
    </g>
    <g clip-path="url(#clip47_2_1654)">
        <path d="M45.9197 16.9606H43.4024V8.93018L45.9197 8.93018" fill="#010066"/>
        <path d="M42.7934 8.93018L43.3582 8.93018V16.9606H42.7934L41.8995 16.0677V9.823" fill="#010066"/>
        <path d="M49.0827 16.9609H48.5179V8.93051H49.0827L49.9767 9.82333V16.0681" fill="#010066"/>
        <path d="M45.9565 8.93051H48.4737V16.9609H45.9565" fill="#010066"/>
    </g>
    <g clip-path="url(#clip48_2_1654)">
        <path d="M4.02022 8.58067H1.50293V0.550293L4.02022 0.550293" fill="#010066"/>
        <path d="M0.893932 0.550293L1.45871 0.550293V8.58067H0.893932L0 7.68785V1.44312" fill="#010066"/>
        <path d="M7.18319 8.58103H6.61841V0.550659H7.18319L8.07712 1.44348V7.68821" fill="#010066"/>
        <path d="M4.05701 0.550659H6.57429V8.58103H4.05701" fill="#010066"/>
    </g>
    <g clip-path="url(#clip49_2_1654)">
        <path d="M12.4001 8.58067H9.88281V0.550293L12.4001 0.550293" fill="#010066"/>
        <path d="M9.27381 0.550293L9.83859 0.550293V8.58067H9.27381L8.37988 7.68785V1.44312" fill="#010066"/>
        <path d="M15.5631 8.58103H14.9983V0.550659H15.5631L16.457 1.44348V7.68821" fill="#010066"/>
        <path d="M12.4369 0.550659H14.9542V8.58103H12.4369" fill="#010066"/>
    </g>
    <g clip-path="url(#clip50_2_1654)">
        <path d="M20.78 8.58067H18.2627V0.550293L20.78 0.550293" fill="#010066"/>
        <path d="M17.6537 0.550293L18.2185 0.550293V8.58067H17.6537L16.7598 7.68785V1.44312" fill="#010066"/>
        <path d="M23.943 8.58103H23.3782V0.550659H23.943L24.8369 1.44348V7.68821" fill="#010066"/>
        <path d="M20.8168 0.550659H23.3341V8.58103H20.8168" fill="#010066"/>
    </g>
    <g clip-path="url(#clip51_2_1654)">
        <path d="M29.1598 8.58067H26.6425V0.550293L29.1598 0.550293" fill="#010066"/>
        <path d="M26.0336 0.550293L26.5984 0.550293V8.58067H26.0336L25.1396 7.68785V1.44312" fill="#010066"/>
        <path d="M32.3229 8.58103H31.7581V0.550659H32.3229L33.2168 1.44348V7.68821" fill="#010066"/>
        <path d="M29.1967 0.550659H31.7139V8.58103H29.1967" fill="#010066"/>
    </g>
    <g clip-path="url(#clip52_2_1654)">
        <path d="M37.5397 8.58067H35.0225V0.550293L37.5397 0.550293" fill="#010066"/>
        <path d="M34.4135 0.550293L34.9783 0.550293V8.58067H34.4135L33.5196 7.68785V1.44312" fill="#010066"/>
        <path d="M40.7028 8.58103H40.1381V0.550659H40.7028L41.5968 1.44348V7.68821" fill="#010066"/>
        <path d="M37.5766 0.550659H40.0939V8.58103H37.5766" fill="#010066"/>
    </g>
    <g clip-path="url(#clip53_2_1654)">
        <path d="M45.9197 8.58067H43.4024V0.550293L45.9197 0.550293" fill="#010066"/>
        <path d="M42.7934 0.550293L43.3582 0.550293V8.58067H42.7934L41.8995 7.68785V1.44312" fill="#010066"/>
        <path d="M49.0827 8.58103H48.5179V0.550659H49.0827L49.9767 1.44348V7.68821" fill="#010066"/>
        <path d="M45.9565 0.550659H48.4737V8.58103H45.9565" fill="#010066"/>
    </g>
    <g clip-path="url(#clip54_2_1654)">
        <path d="M4.02022 25.3404H1.50293V17.3101H4.02022" fill="#010066"/>
        <path d="M0.893932 17.3101H1.45871V25.3404H0.893932L0 24.4476V18.2029" fill="#010066"/>
        <path d="M7.18319 25.3407H6.61841V17.3104H7.18319L8.07712 18.2032V24.4479" fill="#010066"/>
        <path d="M4.05701 17.3104H6.57429V25.3407H4.05701" fill="#010066"/>
    </g>
    <g clip-path="url(#clip55_2_1654)">
        <path d="M12.4001 25.3404H9.88281V17.3101H12.4001" fill="#010066"/>
        <path d="M9.27381 17.3101H9.83859V25.3404H9.27381L8.37988 24.4476V18.2029" fill="#010066"/>
        <path d="M15.5631 25.3407H14.9983V17.3104H15.5631L16.457 18.2032V24.4479" fill="#010066"/>
        <path d="M12.4369 17.3104H14.9542V25.3407H12.4369" fill="#010066"/>
    </g>
    <g clip-path="url(#clip56_2_1654)">
        <path d="M20.78 25.3404H18.2627V17.3101H20.78" fill="#010066"/>
        <path d="M17.6537 17.3101H18.2185V25.3404H17.6537L16.7598 24.4476V18.2029" fill="#010066"/>
        <path d="M23.943 25.3407H23.3782V17.3104H23.943L24.8369 18.2032V24.4479" fill="#010066"/>
        <path d="M20.8168 17.3104H23.3341V25.3407H20.8168" fill="#010066"/>
    </g>
    <g clip-path="url(#clip57_2_1654)">
        <path d="M29.1598 25.3404H26.6425V17.3101H29.1598" fill="#010066"/>
        <path d="M26.0336 17.3101H26.5984V25.3404H26.0336L25.1396 24.4476V18.2029" fill="#010066"/>
        <path d="M32.3229 25.3407H31.7581V17.3104H32.3229L33.2168 18.2032V24.4479" fill="#010066"/>
        <path d="M29.1967 17.3104H31.7139V25.3407H29.1967" fill="#010066"/>
    </g>
    <g clip-path="url(#clip58_2_1654)">
        <path d="M37.5397 25.3404H35.0225V17.3101H37.5397" fill="#010066"/>
        <path d="M34.4135 17.3101H34.9783V25.3404H34.4135L33.5196 24.4476V18.2029" fill="#010066"/>
        <path d="M40.7028 25.3407H40.1381V17.3104H40.7028L41.5968 18.2032V24.4479" fill="#010066"/>
        <path d="M37.5766 17.3104H40.0939V25.3407H37.5766" fill="#010066"/>
    </g>
    <g clip-path="url(#clip59_2_1654)">
        <path d="M45.9197 25.3404H43.4024V17.3101H45.9197" fill="#010066"/>
        <path d="M42.7934 17.3101H43.3582V25.3404H42.7934L41.8995 24.4476V18.2029" fill="#010066"/>
        <path d="M49.0827 25.3407H48.5179V17.3104H49.0827L49.9767 18.2032V24.4479" fill="#010066"/>
        <path d="M45.9565 17.3104H48.4737V25.3407H45.9565" fill="#010066"/>
    </g>
    <g clip-path="url(#clip60_2_1654)">
        <path d="M4.02022 33.7203H1.50293V25.6899H4.02022" fill="#010066"/>
        <path d="M0.893932 25.6899H1.45871V33.7203H0.893932L0 32.8275V26.5828" fill="#010066"/>
        <path d="M7.18319 33.7206H6.61841V25.6902H7.18319L8.07712 26.5831V32.8278" fill="#010066"/>
        <path d="M4.05701 25.6902H6.57429V33.7206H4.05701" fill="#010066"/>
        <g clip-path="url(#clip61_2_1654)">
            <path d="M4.02022 33.7203H1.50293V25.6899H4.02022" fill="#010066"/>
            <path d="M0.893932 25.6899H1.45871V33.7203H0.893932L0 32.8275V26.5828" fill="#010066"/>
            <path d="M7.18319 33.7206H6.61841V25.6902H7.18319L8.07712 26.5831V32.8278" fill="#010066"/>
            <path d="M4.05701 25.6902H6.57429V33.7206H4.05701" fill="#010066"/>
        </g>
    </g>
    <g clip-path="url(#clip62_2_1654)">
        <path d="M12.4001 33.7203H9.88281V25.6899H12.4001" fill="#010066"/>
        <path d="M9.27381 25.6899H9.83859V33.7203H9.27381L8.37988 32.8275V26.5828" fill="#010066"/>
        <path d="M15.5631 33.7206H14.9983V25.6902H15.5631L16.457 26.5831V32.8278" fill="#010066"/>
        <path d="M12.4369 25.6902H14.9542V33.7206H12.4369" fill="#010066"/>
        <g clip-path="url(#clip63_2_1654)">
            <path d="M12.4001 33.7203H9.88281V25.6899H12.4001" fill="#010066"/>
            <path d="M9.27381 25.6899H9.83859V33.7203H9.27381L8.37988 32.8275V26.5828" fill="#010066"/>
            <path d="M15.5631 33.7206H14.9983V25.6902H15.5631L16.457 26.5831V32.8278" fill="#010066"/>
            <path d="M12.4369 25.6902H14.9542V33.7206H12.4369" fill="#010066"/>
        </g>
    </g>
    <g clip-path="url(#clip64_2_1654)">
        <path d="M20.78 33.7203H18.2627V25.6899H20.78" fill="#010066"/>
        <path d="M17.6537 25.6899H18.2185V33.7203H17.6537L16.7598 32.8275V26.5828" fill="#010066"/>
        <path d="M23.943 33.7206H23.3782V25.6902H23.943L24.8369 26.5831V32.8278" fill="#010066"/>
        <path d="M20.8168 25.6902H23.3341V33.7206H20.8168" fill="#010066"/>
        <g clip-path="url(#clip65_2_1654)">
            <path d="M20.78 33.7203H18.2627V25.6899H20.78" fill="#010066"/>
            <path d="M17.6537 25.6899H18.2185V33.7203H17.6537L16.7598 32.8275V26.5828" fill="#010066"/>
            <path d="M23.943 33.7206H23.3782V25.6902H23.943L24.8369 26.5831V32.8278" fill="#010066"/>
            <path d="M20.8168 25.6902H23.3341V33.7206H20.8168" fill="#010066"/>
        </g>
    </g>
    <g clip-path="url(#clip66_2_1654)">
        <path d="M29.1598 33.7203H26.6425V25.6899H29.1598" fill="#010066"/>
        <path d="M26.0336 25.6899H26.5984V33.7203H26.0336L25.1396 32.8275V26.5828" fill="#010066"/>
        <path d="M32.3229 33.7206H31.7581V25.6902H32.3229L33.2168 26.5831V32.8278" fill="#010066"/>
        <path d="M29.1967 25.6902H31.7139V33.7206H29.1967" fill="#010066"/>
        <g clip-path="url(#clip67_2_1654)">
            <path d="M29.1598 33.7203H26.6425V25.6899H29.1598" fill="#010066"/>
            <path d="M26.0336 25.6899H26.5984V33.7203H26.0336L25.1396 32.8275V26.5828" fill="#010066"/>
            <path d="M32.3229 33.7206H31.7581V25.6902H32.3229L33.2168 26.5831V32.8278" fill="#010066"/>
            <path d="M29.1967 25.6902H31.7139V33.7206H29.1967" fill="#010066"/>
        </g>
    </g>
    <g clip-path="url(#clip68_2_1654)">
        <path d="M37.5397 33.7203H35.0225V25.6899H37.5397" fill="#010066"/>
        <path d="M34.4135 25.6899H34.9783V33.7203H34.4135L33.5196 32.8275V26.5828" fill="#010066"/>
        <path d="M40.7028 33.7206H40.1381V25.6902H40.7028L41.5968 26.5831V32.8278" fill="#010066"/>
        <path d="M37.5766 25.6902H40.0939V33.7206H37.5766" fill="#010066"/>
        <g clip-path="url(#clip69_2_1654)">
            <path d="M37.5397 33.7203H35.0225V25.6899H37.5397" fill="#010066"/>
            <path d="M34.4135 25.6899H34.9783V33.7203H34.4135L33.5196 32.8275V26.5828" fill="#010066"/>
            <path d="M40.7028 33.7206H40.1381V25.6902H40.7028L41.5968 26.5831V32.8278" fill="#010066"/>
            <path d="M37.5766 25.6902H40.0939V33.7206H37.5766" fill="#010066"/>
        </g>
    </g>
    <g clip-path="url(#clip70_2_1654)">
        <path d="M45.9197 33.7203H43.4024V25.6899H45.9197" fill="#010066"/>
        <path d="M42.7934 25.6899H43.3582V33.7203H42.7934L41.8995 32.8275V26.5828" fill="#010066"/>
        <path d="M49.0827 33.7206H48.5179V25.6902H49.0827L49.9767 26.5831V32.8278" fill="#010066"/>
        <path d="M45.9565 25.6902H48.4737V33.7206H45.9565" fill="#010066"/>
        <g clip-path="url(#clip71_2_1654)">
            <path d="M45.9197 33.7203H43.4024V25.6899H45.9197" fill="#010066"/>
            <path d="M42.7934 25.6899H43.3582V33.7203H42.7934L41.8995 32.8275V26.5828" fill="#010066"/>
            <path d="M49.0827 33.7206H48.5179V25.6902H49.0827L49.9767 26.5831V32.8278" fill="#010066"/>
            <path d="M45.9565 25.6902H48.4737V33.7206H45.9565" fill="#010066"/>
        </g>
    </g>
    <g clip-path="url(#clip72_2_1654)">
        <path d="M4.02022 83.9996H1.50293V75.9692H4.02022" fill="#010066"/>
        <path d="M0.893932 75.9692H1.45871V83.9996H0.893932L0 83.1068V76.8621" fill="#010066"/>
        <path d="M7.18319 83.9999H6.61841V75.9695H7.18319L8.07712 76.8624V83.1071" fill="#010066"/>
        <path d="M4.05701 75.9695H6.57429V83.9999H4.05701" fill="#010066"/>
    </g>
    <g clip-path="url(#clip73_2_1654)">
        <path d="M12.4001 83.9996H9.88281V75.9692H12.4001" fill="#010066"/>
        <path d="M9.27381 75.9692H9.83859V83.9996H9.27381L8.37988 83.1068V76.8621" fill="#010066"/>
        <path d="M15.5631 83.9999H14.9983V75.9695H15.5631L16.457 76.8624V83.1071" fill="#010066"/>
        <path d="M12.4369 75.9695H14.9542V83.9999H12.4369" fill="#010066"/>
    </g>
    <g clip-path="url(#clip74_2_1654)">
        <path d="M20.78 83.9996H18.2627V75.9692H20.78" fill="#010066"/>
        <path d="M17.6537 75.9692H18.2185V83.9996H17.6537L16.7598 83.1068V76.8621" fill="#010066"/>
        <path d="M23.943 83.9999H23.3782V75.9695H23.943L24.8369 76.8624V83.1071" fill="#010066"/>
        <path d="M20.8168 75.9695H23.3341V83.9999H20.8168" fill="#010066"/>
    </g>
    <g clip-path="url(#clip75_2_1654)">
        <path d="M29.1598 83.9996H26.6425V75.9692H29.1598" fill="#010066"/>
        <path d="M26.0336 75.9692H26.5984V83.9996H26.0336L25.1396 83.1068V76.8621" fill="#010066"/>
        <path d="M32.3229 83.9999H31.7581V75.9695H32.3229L33.2168 76.8624V83.1071" fill="#010066"/>
        <path d="M29.1967 75.9695H31.7139V83.9999H29.1967" fill="#010066"/>
    </g>
    <g clip-path="url(#clip76_2_1654)">
        <path d="M37.5397 83.9996H35.0225V75.9692H37.5397" fill="#010066"/>
        <path d="M34.4135 75.9692H34.9783V83.9996H34.4135L33.5196 83.1068V76.8621" fill="#010066"/>
        <path d="M40.7028 83.9999H40.1381V75.9695H40.7028L41.5968 76.8624V83.1071" fill="#010066"/>
        <path d="M37.5766 75.9695H40.0939V83.9999H37.5766" fill="#010066"/>
    </g>
    <g clip-path="url(#clip77_2_1654)">
        <path d="M45.9197 83.9996H43.4024V75.9692H45.9197" fill="#010066"/>
        <path d="M42.7934 75.9692H43.3582V83.9996H42.7934L41.8995 83.1068V76.8621" fill="#010066"/>
        <path d="M49.0827 83.9999H48.5179V75.9695H49.0827L49.9767 76.8624V83.1071" fill="#010066"/>
        <path d="M45.9565 75.9695H48.4737V83.9999H45.9565" fill="#010066"/>
    </g>
    <g clip-path="url(#clip78_2_1654)">
        <path d="M4.02022 58.86H1.50293V50.8297H4.02022" fill="#010066"/>
        <path d="M0.893932 50.8297H1.45871V58.86H0.893932L0 57.9672V51.7225" fill="#010066"/>
        <path d="M7.18319 58.8604H6.61841V50.83H7.18319L8.07712 51.7228V57.9676" fill="#010066"/>
        <path d="M4.05701 50.83H6.57429V58.8604H4.05701" fill="#010066"/>
    </g>
    <g clip-path="url(#clip79_2_1654)">
        <path d="M12.4001 58.86H9.88281V50.8297H12.4001" fill="#010066"/>
        <path d="M9.27381 50.8297H9.83859V58.86H9.27381L8.37988 57.9672V51.7225" fill="#010066"/>
        <path d="M15.5631 58.8604H14.9983V50.83H15.5631L16.457 51.7228V57.9676" fill="#010066"/>
        <path d="M12.4369 50.83H14.9542V58.8604H12.4369" fill="#010066"/>
    </g>
    <g clip-path="url(#clip80_2_1654)">
        <path d="M20.78 58.86H18.2627V50.8297H20.78" fill="#010066"/>
        <path d="M17.6537 50.8297H18.2185V58.86H17.6537L16.7598 57.9672V51.7225" fill="#010066"/>
        <path d="M23.943 58.8604H23.3782V50.83H23.943L24.8369 51.7228V57.9676" fill="#010066"/>
        <path d="M20.8168 50.83H23.3341V58.8604H20.8168" fill="#010066"/>
    </g>
    <g clip-path="url(#clip81_2_1654)">
        <path d="M29.1598 58.86H26.6425V50.8297H29.1598" fill="#010066"/>
        <path d="M26.0336 50.8297H26.5984V58.86H26.0336L25.1396 57.9672V51.7225" fill="#010066"/>
        <path d="M32.3229 58.8604H31.7581V50.83H32.3229L33.2168 51.7228V57.9676" fill="#010066"/>
        <path d="M29.1967 50.83H31.7139V58.8604H29.1967" fill="#010066"/>
    </g>
    <g clip-path="url(#clip82_2_1654)">
        <path d="M37.5397 58.86H35.0225V50.8297H37.5397" fill="#010066"/>
        <path d="M34.4135 50.8297H34.9783V58.86H34.4135L33.5196 57.9672V51.7225" fill="#010066"/>
        <path d="M40.7028 58.8604H40.1381V50.83H40.7028L41.5968 51.7228V57.9676" fill="#010066"/>
        <path d="M37.5766 50.83H40.0939V58.8604H37.5766" fill="#010066"/>
    </g>
    <g clip-path="url(#clip83_2_1654)">
        <path d="M45.9197 58.86H43.4024V50.8297H45.9197" fill="#010066"/>
        <path d="M42.7934 50.8297H43.3582V58.86H42.7934L41.8995 57.9672V51.7225" fill="#010066"/>
        <path d="M49.0827 58.8604H48.5179V50.83H49.0827L49.9767 51.7228V57.9676" fill="#010066"/>
        <path d="M45.9565 50.83H48.4737V58.8604H45.9565" fill="#010066"/>
    </g>
    <g clip-path="url(#clip84_2_1654)">
        <path d="M4.02022 50.4801H1.50293V42.4498H4.02022" fill="#010066"/>
        <path d="M0.893932 42.4498H1.45871V50.4801H0.893932L0 49.5873V43.3426" fill="#010066"/>
        <path d="M7.18319 50.4805H6.61841V42.4501H7.18319L8.07712 43.343V49.5877" fill="#010066"/>
        <path d="M4.05701 42.4501H6.57429V50.4805H4.05701" fill="#010066"/>
    </g>
    <g clip-path="url(#clip85_2_1654)">
        <path d="M12.4001 50.4801H9.88281V42.4498H12.4001" fill="#010066"/>
        <path d="M9.27381 42.4498H9.83859V50.4801H9.27381L8.37988 49.5873V43.3426" fill="#010066"/>
        <path d="M15.5631 50.4805H14.9983V42.4501H15.5631L16.457 43.343V49.5877" fill="#010066"/>
        <path d="M12.4369 42.4501H14.9542V50.4805H12.4369" fill="#010066"/>
    </g>
    <g clip-path="url(#clip86_2_1654)">
        <path d="M20.78 50.4801H18.2627V42.4498H20.78" fill="#010066"/>
        <path d="M17.6537 42.4498H18.2185V50.4801H17.6537L16.7598 49.5873V43.3426" fill="#010066"/>
        <path d="M23.943 50.4805H23.3782V42.4501H23.943L24.8369 43.343V49.5877" fill="#010066"/>
        <path d="M20.8168 42.4501H23.3341V50.4805H20.8168" fill="#010066"/>
    </g>
    <g clip-path="url(#clip87_2_1654)">
        <path d="M29.1598 50.4801H26.6425V42.4498H29.1598" fill="#010066"/>
        <path d="M26.0336 42.4498H26.5984V50.4801H26.0336L25.1396 49.5873V43.3426" fill="#010066"/>
        <path d="M32.3229 50.4805H31.7581V42.4501H32.3229L33.2168 43.343V49.5877" fill="#010066"/>
        <path d="M29.1967 42.4501H31.7139V50.4805H29.1967" fill="#010066"/>
    </g>
    <g clip-path="url(#clip88_2_1654)">
        <path d="M37.5397 50.4801H35.0225V42.4498H37.5397" fill="#010066"/>
        <path d="M34.4135 42.4498H34.9783V50.4801H34.4135L33.5196 49.5873V43.3426" fill="#010066"/>
        <path d="M40.7028 50.4805H40.1381V42.4501H40.7028L41.5968 43.343V49.5877" fill="#010066"/>
        <path d="M37.5766 42.4501H40.0939V50.4805H37.5766" fill="#010066"/>
    </g>
    <g clip-path="url(#clip89_2_1654)">
        <path d="M45.9197 50.4801H43.4024V42.4498H45.9197" fill="#010066"/>
        <path d="M42.7934 42.4498H43.3582V50.4801H42.7934L41.8995 49.5873V43.3426" fill="#010066"/>
        <path d="M49.0827 50.4805H48.5179V42.4501H49.0827L49.9767 43.343V49.5877" fill="#010066"/>
        <path d="M45.9565 42.4501H48.4737V50.4805H45.9565" fill="#010066"/>
    </g>
    <g clip-path="url(#clip90_2_1654)">
        <path d="M4.02022 67.2399H1.50293V59.2095H4.02022" fill="#010066"/>
        <path d="M0.893932 59.2095H1.45871V67.2399H0.893932L0 66.3471V60.1024" fill="#010066"/>
        <path d="M7.18319 67.2402H6.61841V59.2098H7.18319L8.07712 60.1027V66.3474" fill="#010066"/>
        <path d="M4.05701 59.2098H6.57429V67.2402H4.05701" fill="#010066"/>
    </g>
    <g clip-path="url(#clip91_2_1654)">
        <path d="M12.4001 67.2399H9.88281V59.2095H12.4001" fill="#010066"/>
        <path d="M9.27381 59.2095H9.83859V67.2399H9.27381L8.37988 66.3471V60.1024" fill="#010066"/>
        <path d="M15.5631 67.2402H14.9983V59.2098H15.5631L16.457 60.1027V66.3474" fill="#010066"/>
        <path d="M12.4369 59.2098H14.9542V67.2402H12.4369" fill="#010066"/>
    </g>
    <g clip-path="url(#clip92_2_1654)">
        <path d="M20.78 67.2399H18.2627V59.2095H20.78" fill="#010066"/>
        <path d="M17.6537 59.2095H18.2185V67.2399H17.6537L16.7598 66.3471V60.1024" fill="#010066"/>
        <path d="M23.943 67.2402H23.3782V59.2098H23.943L24.8369 60.1027V66.3474" fill="#010066"/>
        <path d="M20.8168 59.2098H23.3341V67.2402H20.8168" fill="#010066"/>
    </g>
    <g clip-path="url(#clip93_2_1654)">
        <path d="M29.1598 67.2399H26.6425V59.2095H29.1598" fill="#010066"/>
        <path d="M26.0336 59.2095H26.5984V67.2399H26.0336L25.1396 66.3471V60.1024" fill="#010066"/>
        <path d="M32.3229 67.2402H31.7581V59.2098H32.3229L33.2168 60.1027V66.3474" fill="#010066"/>
        <path d="M29.1967 59.2098H31.7139V67.2402H29.1967" fill="#010066"/>
    </g>
    <g clip-path="url(#clip94_2_1654)">
        <path d="M37.5397 67.2399H35.0225V59.2095H37.5397" fill="#010066"/>
        <path d="M34.4135 59.2095H34.9783V67.2399H34.4135L33.5196 66.3471V60.1024" fill="#010066"/>
        <path d="M40.7028 67.2402H40.1381V59.2098H40.7028L41.5968 60.1027V66.3474" fill="#010066"/>
        <path d="M37.5766 59.2098H40.0939V67.2402H37.5766" fill="#010066"/>
    </g>
    <g clip-path="url(#clip95_2_1654)">
        <path d="M45.9197 67.2399H43.4024V59.2095H45.9197" fill="#010066"/>
        <path d="M42.7934 59.2095H43.3582V67.2399H42.7934L41.8995 66.3471V60.1024" fill="#010066"/>
        <path d="M49.0827 67.2402H48.5179V59.2098H49.0827L49.9767 60.1027V66.3474" fill="#010066"/>
        <path d="M45.9565 59.2098H48.4737V67.2402H45.9565" fill="#010066"/>
    </g>
    <g clip-path="url(#clip96_2_1654)">
        <path d="M4.02022 75.6198H1.50293V67.5894H4.02022" fill="#010066"/>
        <path d="M0.893932 67.5894H1.45871V75.6198H0.893932L0 74.727V68.4822" fill="#010066"/>
        <path d="M7.18319 75.6201H6.61841V67.5897H7.18319L8.07712 68.4825V74.7273" fill="#010066"/>
        <path d="M4.05701 67.5897H6.57429V75.6201H4.05701" fill="#010066"/>
        <g clip-path="url(#clip97_2_1654)">
            <path d="M4.02022 75.6198H1.50293V67.5894H4.02022" fill="#010066"/>
            <path d="M0.893932 67.5894H1.45871V75.6198H0.893932L0 74.727V68.4822" fill="#010066"/>
            <path d="M7.18319 75.6201H6.61841V67.5897H7.18319L8.07712 68.4825V74.7273" fill="#010066"/>
            <path d="M4.05701 67.5897H6.57429V75.6201H4.05701" fill="#010066"/>
        </g>
    </g>
    <g clip-path="url(#clip98_2_1654)">
        <path d="M12.4001 75.6198H9.88281V67.5894H12.4001" fill="#010066"/>
        <path d="M9.27381 67.5894H9.83859V75.6198H9.27381L8.37988 74.727V68.4822" fill="#010066"/>
        <path d="M15.5631 75.6201H14.9983V67.5897H15.5631L16.457 68.4825V74.7273" fill="#010066"/>
        <path d="M12.4369 67.5897H14.9542V75.6201H12.4369" fill="#010066"/>
        <g clip-path="url(#clip99_2_1654)">
            <path d="M12.4001 75.6198H9.88281V67.5894H12.4001" fill="#010066"/>
            <path d="M9.27381 67.5894H9.83859V75.6198H9.27381L8.37988 74.727V68.4822" fill="#010066"/>
            <path d="M15.5631 75.6201H14.9983V67.5897H15.5631L16.457 68.4825V74.7273" fill="#010066"/>
            <path d="M12.4369 67.5897H14.9542V75.6201H12.4369" fill="#010066"/>
        </g>
    </g>
    <g clip-path="url(#clip100_2_1654)">
        <path d="M20.78 75.6198H18.2627V67.5894H20.78" fill="#010066"/>
        <path d="M17.6537 67.5894H18.2185V75.6198H17.6537L16.7598 74.727V68.4822" fill="#010066"/>
        <path d="M23.943 75.6201H23.3782V67.5897H23.943L24.8369 68.4825V74.7273" fill="#010066"/>
        <path d="M20.8168 67.5897H23.3341V75.6201H20.8168" fill="#010066"/>
        <g clip-path="url(#clip101_2_1654)">
            <path d="M20.78 75.6198H18.2627V67.5894H20.78" fill="#010066"/>
            <path d="M17.6537 67.5894H18.2185V75.6198H17.6537L16.7598 74.727V68.4822" fill="#010066"/>
            <path d="M23.943 75.6201H23.3782V67.5897H23.943L24.8369 68.4825V74.7273" fill="#010066"/>
            <path d="M20.8168 67.5897H23.3341V75.6201H20.8168" fill="#010066"/>
        </g>
    </g>
    <g clip-path="url(#clip102_2_1654)">
        <path d="M29.1598 75.6198H26.6425V67.5894H29.1598" fill="#010066"/>
        <path d="M26.0336 67.5894H26.5984V75.6198H26.0336L25.1396 74.727V68.4822" fill="#010066"/>
        <path d="M32.3229 75.6201H31.7581V67.5897H32.3229L33.2168 68.4825V74.7273" fill="#010066"/>
        <path d="M29.1967 67.5897H31.7139V75.6201H29.1967" fill="#010066"/>
        <g clip-path="url(#clip103_2_1654)">
            <path d="M29.1598 75.6198H26.6425V67.5894H29.1598" fill="#010066"/>
            <path d="M26.0336 67.5894H26.5984V75.6198H26.0336L25.1396 74.727V68.4822" fill="#010066"/>
            <path d="M32.3229 75.6201H31.7581V67.5897H32.3229L33.2168 68.4825V74.7273" fill="#010066"/>
            <path d="M29.1967 67.5897H31.7139V75.6201H29.1967" fill="#010066"/>
        </g>
    </g>
    <g clip-path="url(#clip104_2_1654)">
        <path d="M37.5397 75.6198H35.0225V67.5894H37.5397" fill="#010066"/>
        <path d="M34.4135 67.5894H34.9783V75.6198H34.4135L33.5196 74.727V68.4822" fill="#010066"/>
        <path d="M40.7028 75.6201H40.1381V67.5897H40.7028L41.5968 68.4825V74.7273" fill="#010066"/>
        <path d="M37.5766 67.5897H40.0939V75.6201H37.5766" fill="#010066"/>
        <g clip-path="url(#clip105_2_1654)">
            <path d="M37.5397 75.6198H35.0225V67.5894H37.5397" fill="#010066"/>
            <path d="M34.4135 67.5894H34.9783V75.6198H34.4135L33.5196 74.727V68.4822" fill="#010066"/>
            <path d="M40.7028 75.6201H40.1381V67.5897H40.7028L41.5968 68.4825V74.7273" fill="#010066"/>
            <path d="M37.5766 67.5897H40.0939V75.6201H37.5766" fill="#010066"/>
        </g>
    </g>
    <g clip-path="url(#clip106_2_1654)">
        <path d="M45.9197 75.6198H43.4024V67.5894H45.9197" fill="#010066"/>
        <path d="M42.7934 67.5894H43.3582V75.6198H42.7934L41.8995 74.727V68.4822" fill="#010066"/>
        <path d="M49.0827 75.6201H48.5179V67.5897H49.0827L49.9767 68.4825V74.7273" fill="#010066"/>
        <path d="M45.9565 67.5897H48.4737V75.6201H45.9565" fill="#010066"/>
        <g clip-path="url(#clip107_2_1654)">
            <path d="M45.9197 75.6198H43.4024V67.5894H45.9197" fill="#010066"/>
            <path d="M42.7934 67.5894H43.3582V75.6198H42.7934L41.8995 74.727V68.4822" fill="#010066"/>
            <path d="M49.0827 75.6201H48.5179V67.5897H49.0827L49.9767 68.4825V74.7273" fill="#010066"/>
            <path d="M45.9565 67.5897H48.4737V75.6201H45.9565" fill="#010066"/>
        </g>
    </g>
</svg>
