<svg width="1506" height="1471" viewBox="0 0 1506 1471" fill="none" xmlns="http://www.w3.org/2000/svg">
<g filter="url(#filter0_d_314_166)">
<path d="M751 1331.5C384.056 1331.5 85.5 1032.97 85.5 666C85.5 299.056 384.056 0.5 751 0.5C1117.94 0.5 1416.5 299.056 1416.5 666C1416.5 1032.97 1117.94 1331.5 751 1331.5Z" fill="#00C3FF" stroke="black"/>
<path d="M751 0.5C780.38 0.5 809.299 2.45275 837.675 6.17706C514.553 52.0139 265.266 330.415 265.266 666C265.266 1001.58 514.548 1279.98 837.666 1325.82C809.292 1329.52 780.377 1331.48 751 1331.48C384.055 1331.48 85.5 1032.94 85.5 665.977C85.5 299.033 384.055 0.5 751 0.5Z" fill="#00AAF0" stroke="black"/>
<path d="M1320.42 728.89H1093.58C1062.54 728.89 1037.38 703.723 1037.38 672.681C1037.38 641.638 1062.54 616.472 1093.58 616.472H1320.42C1351.46 616.472 1376.63 641.638 1376.63 672.681C1376.63 703.727 1351.47 728.89 1320.42 728.89Z" fill="#FF8859" stroke="black"/>
<path d="M413.076 728.89H186.24C155.197 728.89 130.031 703.723 130.031 672.681C130.031 641.638 155.197 616.472 186.24 616.472H413.076C444.118 616.472 469.285 641.638 469.285 672.681C469.285 703.727 444.122 728.89 413.076 728.89Z" fill="#FFB655" stroke="black"/>
<path d="M753.33 388.636C722.288 388.636 697.121 363.469 697.121 332.427V105.591C697.121 74.5485 722.288 49.3818 753.33 49.3818C784.373 49.3818 809.54 74.5485 809.54 105.591V332.427C809.54 363.473 784.376 388.636 753.33 388.636Z" fill="#FFB655" stroke="black"/>
<path d="M809.54 332.427C809.54 363.302 784.643 388.365 753.831 388.634V49.384C784.643 49.6525 809.54 74.7153 809.54 105.591V332.427Z" fill="#FF8859" stroke="black"/>
<path d="M954.179 471.831C932.227 449.879 932.227 414.291 954.179 392.34L1114.58 231.94C1136.53 209.989 1172.12 209.989 1194.07 231.94C1216.02 253.892 1216.02 289.479 1194.07 311.431L1033.67 471.831C1011.72 493.782 976.131 493.782 954.179 471.831Z" fill="#FF8859" stroke="black"/>
<path d="M472.988 471.831L312.589 311.431C290.637 289.479 290.637 253.892 312.589 231.94C334.54 209.989 370.128 209.989 392.08 231.94L552.479 392.34C574.431 414.291 574.431 449.879 552.479 471.831C530.528 493.782 494.94 493.782 472.988 471.831Z" fill="#FFB655" stroke="black"/>
<path d="M1073.81 842.308H432.852C409.042 842.308 387.81 827.304 379.862 804.855C364.603 761.747 356.866 717.28 356.866 672.681C356.866 454.072 534.72 276.218 753.33 276.218C971.94 276.218 1149.79 454.072 1149.79 672.681C1149.79 717.28 1142.06 761.747 1126.8 804.855C1118.85 827.304 1097.62 842.308 1073.81 842.308Z" fill="#FFF04A" stroke="black"/>
<path d="M1126.8 804.855C1118.85 827.304 1097.62 842.308 1073.81 842.308H753.831V276.219C972.211 276.49 1149.79 454.239 1149.79 672.681C1149.79 717.28 1142.06 761.747 1126.8 804.855Z" fill="#FFB655" stroke="black"/>
<path d="M49.2732 1417.82L165.985 950.973H1340.67L1457.39 1417.82H49.2732Z" fill="#AED0FF" stroke="black"/>
<path d="M1340.67 950.973L1457.39 1417.82H753.829V950.973H1340.67Z" fill="#6AA9FF" stroke="black"/>
<path d="M1343.37 1141.04H1344.01L1343.85 1140.42L1307.3 994.212L1307.21 993.834H1306.82H1096.88H1096.31L1096.38 994.396L1114.66 1140.6L1114.71 1141.04H1115.15H1343.37ZM123.529 939.956L123.092 939.847L123.529 939.956C128.353 920.655 145.698 907.112 165.595 907.112H1341.06C1360.96 907.112 1378.31 920.655 1383.13 939.956L1500.09 1407.8C1503.33 1420.76 1500.42 1434.48 1492.2 1445.01C1483.98 1455.53 1471.38 1461.68 1458.03 1461.68H48.6324C35.2802 1461.68 22.6738 1455.53 14.4554 1445.01L14.1587 1445.24L14.4554 1445.01C6.23712 1434.48 3.32617 1420.76 6.56665 1407.81L6.0816 1407.68L6.56667 1407.8L123.529 939.956ZM709.968 994.334V993.834H709.468H498.179H497.738L497.683 994.272L479.408 1140.47L479.338 1141.04H479.904H709.468H709.968V1140.54V994.334ZM709.968 1228.26V1227.76H709.468H468.939H468.497L468.443 1228.2L450.167 1374.4L450.097 1374.96H450.663H709.468H709.968V1374.46V1228.26ZM797.19 1227.76H796.69V1228.26V1374.46V1374.96H797.19H1055.99H1056.56L1056.49 1374.4L1038.22 1228.2L1038.16 1227.76H1037.72H797.19ZM796.69 1140.54V1141.04H797.19H1026.75H1027.32L1027.25 1140.47L1008.98 994.272L1008.92 993.834H1008.48H797.19H796.69V994.334V1140.54ZM199.841 993.834H199.451L199.356 994.212L162.805 1140.42L162.65 1141.04H163.29H391.504H391.945L392 1140.6L410.275 994.396L410.346 993.834H409.779H199.841ZM141.36 1227.76H140.97L140.875 1228.14L104.324 1374.34L104.169 1374.96H104.809H362.263H362.705L362.76 1374.52L381.035 1228.32L381.105 1227.76H380.539H141.36ZM1143.9 1374.52L1143.95 1374.96H1144.4H1401.85H1402.49L1402.33 1374.34L1365.78 1228.14L1365.69 1227.76H1365.3H1126.12H1125.55L1125.62 1228.32L1143.9 1374.52Z" fill="#6AA9FF" stroke="black"/>
<path d="M797.19 993.834H796.69V994.334V1140.54V1141.04H797.19H1026.76H1027.32L1027.25 1140.47L1008.98 994.272L1008.92 993.834H1008.48H797.19ZM796.69 1374.46V1374.96H797.19H1056H1056.56L1056.49 1374.4L1038.22 1228.2L1038.16 1227.76H1037.72H797.19H796.69V1228.26V1374.46ZM1096.88 993.834H1096.31L1096.38 994.396L1114.66 1140.6L1114.71 1141.04H1115.16H1343.37H1344.01L1343.85 1140.42L1307.3 994.212L1307.21 993.834H1306.82H1096.88ZM1143.9 1374.52L1143.95 1374.96H1144.4H1401.85H1402.49L1402.34 1374.34L1365.78 1228.14L1365.69 1227.76H1365.3H1126.12H1125.55L1125.62 1228.32L1143.9 1374.52ZM1341.07 907.112C1360.96 907.112 1378.31 920.655 1383.13 939.956L1500.09 1407.8C1503.33 1420.76 1500.42 1434.48 1492.2 1445.01C1483.99 1455.53 1471.38 1461.68 1458.03 1461.68H753.829V907.112H1341.07Z" fill="#4C88FF" stroke="black"/>
</g>
<defs>
<filter id="filter0_d_314_166" x="0.770508" y="0" width="1505.12" height="1470.18" filterUnits="userSpaceOnUse" color-interpolation-filters="sRGB">
<feFlood flood-opacity="0" result="BackgroundImageFix"/>
<feColorMatrix in="SourceAlpha" type="matrix" values="0 0 0 0 0 0 0 0 0 0 0 0 0 0 0 0 0 0 127 0" result="hardAlpha"/>
<feOffset dy="4"/>
<feGaussianBlur stdDeviation="2"/>
<feComposite in2="hardAlpha" operator="out"/>
<feColorMatrix type="matrix" values="0 0 0 0 0 0 0 0 0 0 0 0 0 0 0 0 0 0 0.25 0"/>
<feBlend mode="normal" in2="BackgroundImageFix" result="effect1_dropShadow_314_166"/>
<feBlend mode="normal" in="SourceGraphic" in2="effect1_dropShadow_314_166" result="shape"/>
</filter>
</defs>
</svg>
