<svg width="32" height="32" viewBox="0 0 32 32" fill="none" xmlns="http://www.w3.org/2000/svg">
<path d="M16 32C7.17788 32 0 24.8227 0 16C0 7.17788 7.17788 0 16 0C24.8221 0 32 7.17788 32 16C32 24.8227 24.8221 32 16 32Z" fill="#B5728E"/>
<path d="M4.34273 16C4.34273 7.91384 10.372 1.21067 18.1711 0.148179C17.4609 0.0510393 16.7365 0 16 0C7.17788 0 0 7.17733 0 15.9995C0 24.8221 7.17788 31.9995 16 31.9995C16.7365 31.9995 17.4609 31.9484 18.1711 31.8518C10.372 30.7893 4.34273 24.0862 4.34273 16V16Z" fill="#776E99"/>
<path d="M29.6798 17.5229H24.2303C23.4779 17.5229 22.8679 16.9129 22.8679 16.1605C22.8679 15.4081 23.4779 14.7981 24.2303 14.7981H29.6798C30.4322 14.7981 31.0422 15.4081 31.0422 16.1605C31.0422 16.913 30.4323 17.5229 29.6798 17.5229Z" fill="#DA7F7D"/>
<path d="M7.8817 17.5229H2.43218C1.67978 17.5229 1.0698 16.9129 1.0698 16.1605C1.0698 15.4081 1.67978 14.7981 2.43218 14.7981H7.8817C8.63409 14.7981 9.24407 15.4081 9.24407 16.1605C9.24407 16.913 8.63418 17.5229 7.8817 17.5229Z" fill="#EBB58A"/>
<path d="M16.056 9.34861C15.3036 9.34861 14.6936 8.73863 14.6936 7.98623V2.53672C14.6936 1.78432 15.3036 1.17434 16.056 1.17434C16.8084 1.17434 17.4184 1.78432 17.4184 2.53672V7.98623C17.4184 8.73872 16.8085 9.34861 16.056 9.34861Z" fill="#EBB58A"/>
<path d="M16.056 9.34861C16.8084 9.34861 17.4184 8.73863 17.4184 7.98623V2.53672C17.4184 1.78432 16.8084 1.17434 16.056 1.17434V9.34861Z" fill="#DA7F7D"/>
<path d="M20.8727 11.3438C20.3406 10.8117 20.3406 9.94914 20.8727 9.41708L24.7261 5.56364C25.2582 5.03159 26.1208 5.03159 26.6528 5.56364C27.1849 6.0957 27.1849 6.95826 26.6528 7.49032L22.7994 11.3438C22.2674 11.8758 21.4047 11.8758 20.8727 11.3438V11.3438Z" fill="#DA7F7D"/>
<path d="M9.31255 11.3438L5.45911 7.49032C4.92706 6.95826 4.92706 6.0957 5.45911 5.56364C5.99117 5.03159 6.85373 5.03159 7.38579 5.56364L11.2392 9.41708C11.7713 9.94914 11.7713 10.8117 11.2392 11.3438C10.7072 11.8758 9.84461 11.8758 9.31255 11.3438V11.3438Z" fill="#EBB58A"/>
<path d="M23.7552 20.2477H8.35681C7.7797 20.2477 7.26508 19.884 7.07244 19.3399C6.70542 18.303 6.51932 17.2333 6.51932 16.1605C6.51932 10.902 10.7975 6.62386 16.056 6.62386C21.3145 6.62386 25.5926 10.902 25.5926 16.1605C25.5926 17.2333 25.4065 18.303 25.0395 19.3399C24.8469 19.884 24.3323 20.2477 23.7552 20.2477V20.2477Z" fill="#FFF2BD"/>
<path d="M23.7552 20.2477C24.3324 20.2477 24.847 19.884 25.0396 19.3399C25.4065 18.303 25.5926 17.2333 25.5926 16.1605C25.5926 10.902 21.3145 6.62386 16.056 6.62386V20.2477H23.7552Z" fill="#EBB58A"/>
<mask id="mask0_366_59" style="mask-type:alpha" maskUnits="userSpaceOnUse" x="0" y="0" width="32" height="32">
<path d="M16 32C7.17788 32 0 24.8227 0 16C0 7.17788 7.17788 0 16 0C24.8221 0 32 7.17788 32 16C32 24.8227 24.8221 32 16 32Z" fill="#00C3FF"/>
</mask>
<g mask="url(#mask0_366_59)">
<g filter="url(#filter0_d_366_59)">
<path d="M-0.680498 18H32.6805L36 32H-4L-0.680498 18Z" fill="#8DA8CC"/>
<path d="M16 32H36L32.6805 18H16V32Z" fill="#5689CE"/>
<path d="M36.9632 30.5286L33.682 17.897C33.5451 17.3699 33.0529 17 32.4883 17H-0.488257C-1.05288 17 -1.54506 17.3699 -1.68197 17.897L-4.96322 30.5286C-5.05518 30.8823 -4.97257 31.2572 -4.73936 31.5446C-4.50614 31.832 -4.1484 32 -3.7695 32H35.7695C36.1484 32 36.5061 31.832 36.7394 31.5446C36.9726 31.2572 37.0552 30.8824 36.9632 30.5286V30.5286ZM32.5529 23.3158H26.1506L25.6379 19.3684H31.5275L32.5529 23.3158ZM14.7695 19.3684V23.3158H8.32935L8.84204 19.3684H14.7695ZM14.7695 25.6842V29.6316H7.50904L8.02173 25.6842H14.7695ZM17.2305 25.6842H23.9783L24.491 29.6316H17.2305V25.6842ZM17.2305 23.3158V19.3684H23.158L23.6706 23.3158H17.2305ZM0.472491 19.3684H6.36208L5.84939 23.3158H-0.552897L0.472491 19.3684ZM-1.16813 25.6842H5.54177L5.02907 29.6316H-2.19352L-1.16813 25.6842ZM26.9709 29.6316L26.4582 25.6842H33.1681L34.1935 29.6316H26.9709Z" fill="#5689CE"/>
<path d="M33.682 17.897C33.5451 17.3699 33.0529 17 32.4883 17H16V32H35.7695C36.1484 32 36.5061 31.832 36.7394 31.5446C36.9726 31.2571 37.0552 30.8823 36.9632 30.5286L33.682 17.897ZM17.2305 19.3684H23.158L23.6706 23.3158H17.2305V19.3684ZM17.2305 29.6316V25.6842H23.9783L24.491 29.6316H17.2305ZM25.6379 19.3684H31.5275L32.5529 23.3158H26.1506L25.6379 19.3684ZM26.9709 29.6316L26.4582 25.6842H33.1681L34.1935 29.6316H26.9709Z" fill="#3A69C7"/>
</g>
</g>
<defs>
<filter id="filter0_d_366_59" x="-9" y="17" width="50" height="23" filterUnits="userSpaceOnUse" color-interpolation-filters="sRGB">
<feFlood flood-opacity="0" result="BackgroundImageFix"/>
<feColorMatrix in="SourceAlpha" type="matrix" values="0 0 0 0 0 0 0 0 0 0 0 0 0 0 0 0 0 0 127 0" result="hardAlpha"/>
<feOffset dy="4"/>
<feGaussianBlur stdDeviation="2"/>
<feComposite in2="hardAlpha" operator="out"/>
<feColorMatrix type="matrix" values="0 0 0 0 0 0 0 0 0 0 0 0 0 0 0 0 0 0 0.25 0"/>
<feBlend mode="normal" in2="BackgroundImageFix" result="effect1_dropShadow_366_59"/>
<feBlend mode="normal" in="SourceGraphic" in2="effect1_dropShadow_366_59" result="shape"/>
</filter>
</defs>
</svg>
