<svg width="32" height="32" viewBox="0 0 32 32" fill="none" xmlns="http://www.w3.org/2000/svg">
    <path d="M16 32C7.17788 32 0 24.8227 0 16C0 7.17788 7.17788 0 16 0C24.8221 0 32 7.17788 32 16C32 24.8227 24.8221 32 16 32Z" fill="#B5728E"/>
    <path d="M4.34273 16C4.34273 7.91384 10.372 1.21067 18.1711 0.148179C17.4609 0.0510393 16.7365 0 16 0C7.17788 0 0 7.17733 0 15.9995C0 24.8221 7.17788 31.9995 16 31.9995C16.7365 31.9995 17.4609 31.9484 18.1711 31.8518C10.372 30.7893 4.34273 24.0862 4.34273 16V16Z" fill="#776E99"/>
    <path d="M29.6798 17.5229H24.2303C23.4779 17.5229 22.8679 16.9129 22.8679 16.1605C22.8679 15.4081 23.4779 14.7981 24.2303 14.7981H29.6798C30.4322 14.7981 31.0422 15.4081 31.0422 16.1605C31.0422 16.913 30.4323 17.5229 29.6798 17.5229Z" fill="#DA7F7D"/>
    <path d="M7.88169 17.5229H2.43217C1.67978 17.5229 1.06979 16.9129 1.06979 16.1605C1.06979 15.4081 1.67978 14.7981 2.43217 14.7981H7.88169C8.63408 14.7981 9.24407 15.4081 9.24407 16.1605C9.24407 16.913 8.63417 17.5229 7.88169 17.5229Z" fill="#EBB58A"/>
    <path d="M16.056 9.34861C15.3036 9.34861 14.6936 8.73863 14.6936 7.98623V2.53672C14.6936 1.78432 15.3036 1.17434 16.056 1.17434C16.8084 1.17434 17.4184 1.78432 17.4184 2.53672V7.98623C17.4184 8.73872 16.8085 9.34861 16.056 9.34861Z" fill="#EBB58A"/>
    <path d="M16.056 9.34861C16.8084 9.34861 17.4184 8.73863 17.4184 7.98623V2.53672C17.4184 1.78432 16.8084 1.17434 16.056 1.17434V9.34861Z" fill="#DA7F7D"/>
    <path d="M20.8727 11.3438C20.3406 10.8117 20.3406 9.94914 20.8727 9.41708L24.7261 5.56364C25.2582 5.03159 26.1208 5.03159 26.6528 5.56364C27.1849 6.0957 27.1849 6.95826 26.6528 7.49032L22.7994 11.3438C22.2674 11.8758 21.4047 11.8758 20.8727 11.3438V11.3438Z" fill="#DA7F7D"/>
    <path d="M9.31254 11.3438L5.4591 7.49032C4.92705 6.95826 4.92705 6.0957 5.4591 5.56364C5.99115 5.03159 6.85372 5.03159 7.38578 5.56364L11.2392 9.41708C11.7713 9.94914 11.7713 10.8117 11.2392 11.3438C10.7072 11.8758 9.8446 11.8758 9.31254 11.3438V11.3438Z" fill="#EBB58A"/>
    <path d="M23.7552 20.2477H8.35681C7.7797 20.2477 7.26508 19.884 7.07244 19.3399C6.70542 18.303 6.51932 17.2333 6.51932 16.1605C6.51932 10.902 10.7975 6.62386 16.056 6.62386C21.3145 6.62386 25.5926 10.902 25.5926 16.1605C25.5926 17.2333 25.4065 18.303 25.0395 19.3399C24.8469 19.884 24.3323 20.2477 23.7552 20.2477V20.2477Z" fill="#FFF2BD"/>
    <path d="M23.7552 20.2477C24.3323 20.2477 24.847 19.884 25.0396 19.3399C25.4065 18.303 25.5926 17.2333 25.5926 16.1605C25.5926 10.902 21.3145 6.62386 16.056 6.62386V20.2477H23.7552Z" fill="#EBB58A"/>
    <path d="M0 18C0.987213 25.8822 7.73068 32 15.8756 32C24.0206 32 30.7641 25.8822 31.7513 18H0Z" fill="#8DA8CC"/>
    <path d="M31.8756 18C30.8884 25.8822 24.145 32 16 32V18H31.8756Z" fill="#5689CE"/>
    <path fill-rule="evenodd" clip-rule="evenodd" d="M7.5992 29.6316C10.0357 31.1331 12.9031 32 15.9691 32C19.0351 32 21.9025 31.1331 24.339 29.6316H17.1996V25.6842H23.9474L24.451 29.5619C25.2541 29.0578 26.0094 28.4845 26.7086 27.8502L26.4273 25.6842H28.6977C29.2633 24.9427 29.7656 24.1505 30.1965 23.3158H26.1197L25.607 19.3684H31.4966L31.5589 19.6081C31.7546 18.7622 31.883 17.8909 31.9382 17H0C0.0552063 17.8909 0.18364 18.7622 0.379333 19.6081L0.441589 19.3684H6.33118L5.81848 23.3158H1.74167C2.17264 24.1505 2.67494 24.9427 3.24046 25.6842H5.51086L5.22954 27.8502C5.92874 28.4845 6.6841 29.0578 7.48718 29.5619L7.99083 25.6842H14.7386V29.6316H7.5992ZM14.7386 23.3158V19.3684H8.81114L8.29845 23.3158H14.7386ZM17.1996 19.3684V23.3158H23.6397L23.1271 19.3684H17.1996Z" fill="#5689CE"/>
    <path fill-rule="evenodd" clip-rule="evenodd" d="M16 32L16.0056 32C19.0695 31.999 21.9349 31.1322 24.3699 29.6316H17.2305V25.6842H23.9783L24.4819 29.5619C25.285 29.0578 26.0404 28.4845 26.7396 27.8502L26.4582 25.6842H28.7286C29.2942 24.9427 29.7965 24.1505 30.2274 23.3158H26.1506L25.6379 19.3684H31.5275L31.5898 19.6081C31.7855 18.7622 31.9139 17.8909 31.9691 17L16 17V32ZM23.158 19.3684H17.2305V23.3158H23.6706L23.158 19.3684Z" fill="#3A69C7"/>
</svg>
