<svg width="32" height="32" viewBox="0 0 32 32" fill="none" xmlns="http://www.w3.org/2000/svg">
  <g id="35c934de8e15f05a2004a5e82a5c847a">
    <g id="a74f88cd54b91186aed5be4ce1301ec6">
      <path id="7eb644f42a935a28a3228ebecc7f1b63" d="M16 32C7.17788 32 0 24.8227 0 16C0 7.17788 7.17788 0 16 0C24.8221 0 32 7.17788 32 16C32 24.8227 24.8221 32 16 32Z" fill="#00C3FF"></path>
      <path id="e4a7803cedf04d06cd2f25b68aa6d27f" d="M4.34273 16C4.34273 7.91384 10.372 1.21067 18.1711 0.148179C17.4609 0.0510393 16.7365 0 16 0C7.17788 0 0 7.17733 0 15.9995C0 24.8221 7.17788 31.9995 16 31.9995C16.7365 31.9995 17.4609 31.9484 18.1711 31.8518C10.372 30.7893 4.34273 24.0862 4.34273 16V16Z" fill="#00AAF0"></path>
      <path id="aebca0ab9cba4b4a11a40e3ce51d6de9" d="M29.6798 17.5229H24.2303C23.4779 17.5229 22.8679 16.9129 22.8679 16.1605C22.8679 15.4081 23.4779 14.7981 24.2303 14.7981H29.6798C30.4322 14.7981 31.0422 15.4081 31.0422 16.1605C31.0422 16.913 30.4323 17.5229 29.6798 17.5229Z" fill="#FF8859"></path>
      <path id="12c82007069391f551cf5d0b43be45b3" d="M7.8817 17.5229H2.43218C1.67978 17.5229 1.0698 16.9129 1.0698 16.1605C1.0698 15.4081 1.67978 14.7981 2.43218 14.7981H7.8817C8.63409 14.7981 9.24407 15.4081 9.24407 16.1605C9.24407 16.913 8.63418 17.5229 7.8817 17.5229Z" fill="#FFB655"></path>
      <path id="d0123d185f9da700fb0eb98f5f896591" d="M16.056 9.34861C15.3036 9.34861 14.6936 8.73863 14.6936 7.98623V2.53672C14.6936 1.78432 15.3036 1.17434 16.056 1.17434C16.8084 1.17434 17.4184 1.78432 17.4184 2.53672V7.98623C17.4184 8.73872 16.8085 9.34861 16.056 9.34861Z" fill="#FFB655"></path>
      <path id="486c018a282f8ad523c7f35dbd5854ba" d="M16.056 9.34861C16.8084 9.34861 17.4184 8.73863 17.4184 7.98623V2.53672C17.4184 1.78432 16.8084 1.17434 16.056 1.17434V9.34861Z" fill="#FF8859"></path>
      <path id="7c67a660b828e1119e230f22d4ef0310" d="M20.8727 11.3438C20.3406 10.8117 20.3406 9.94914 20.8727 9.41708L24.7261 5.56364C25.2582 5.03159 26.1208 5.03159 26.6528 5.56364C27.1849 6.0957 27.1849 6.95826 26.6528 7.49032L22.7994 11.3438C22.2674 11.8758 21.4047 11.8758 20.8727 11.3438V11.3438Z" fill="#FF8859"></path>
      <path id="61ed783e0ab2ced39766d73d31776a01" d="M9.31255 11.3438L5.45911 7.49032C4.92706 6.95826 4.92706 6.0957 5.45911 5.56364C5.99117 5.03159 6.85373 5.03159 7.38579 5.56364L11.2392 9.41708C11.7713 9.94914 11.7713 10.8117 11.2392 11.3438C10.7072 11.8758 9.84461 11.8758 9.31255 11.3438V11.3438Z" fill="#FFB655"></path>
      <path id="61f1280455e164b33a1597046ef4ed87" d="M23.7552 20.2477H8.35681C7.7797 20.2477 7.26508 19.884 7.07244 19.3399C6.70542 18.303 6.51932 17.2333 6.51932 16.1605C6.51932 10.902 10.7975 6.62386 16.056 6.62386C21.3145 6.62386 25.5926 10.902 25.5926 16.1605C25.5926 17.2333 25.4065 18.303 25.0395 19.3399C24.8469 19.884 24.3323 20.2477 23.7552 20.2477V20.2477Z" fill="#FFF04A"></path>
      <path id="c2dc736fc45c8e917376da80146417c9" d="M23.7552 20.2477C24.3324 20.2477 24.847 19.884 25.0396 19.3399C25.4065 18.303 25.5926 17.2333 25.5926 16.1605C25.5926 10.902 21.3145 6.62386 16.056 6.62386V20.2477H23.7552Z" fill="#FFB655"></path>
      <mask id="1b5127b65001ac638de0dc4130db9edf" style="mask-type:alpha" maskUnits="userSpaceOnUse" x="0" y="0" width="32" height="32">
        <path id="7c7eda67038ddfd37992ce895ab6ad5e" d="M16 32C7.17788 32 0 24.8227 0 16C0 7.17788 7.17788 0 16 0C24.8221 0 32 7.17788 32 16C32 24.8227 24.8221 32 16 32Z" fill="#00C3FF"></path>
      </mask>
      <g mask="url(#1b5127b65001ac638de0dc4130db9edf)">
        <path id="0b7119ffcf811105f9192403431df91b" d="M1.93622 22.8342H30.1757L32.9856 34.0738H-0.873684L1.93622 22.8342Z" fill="#AED0FF"></path>
        <path id="f99e7ae694272221d0ecbb033567f538" d="M16.056 34.0738H32.9856L30.1757 22.8342H16.056V34.0738Z" fill="#6AA9FF"></path>
        <path id="4533080003c17ed00d3989b66d203081" d="M34.0079 33.8182L31.198 22.5786C31.0807 22.1096 30.6592 21.7805 30.1757 21.7805H1.93621C1.45269 21.7805 1.03121 22.1096 0.913966 22.5786L-1.89594 33.8182C-1.97468 34.133 -1.90394 34.4665 -1.70423 34.7222C-1.50452 34.978 -1.19817 35.1275 -0.873693 35.1275H32.9856C33.3101 35.1275 33.6164 34.978 33.8162 34.7222C34.0159 34.4665 34.0866 34.1331 34.0079 33.8182V33.8182ZM30.2311 27.4003H24.7485L24.3094 23.8879H29.353L30.2311 27.4003ZM15.0022 23.8879V27.4003H9.48719L9.92623 23.8879H15.0022ZM15.0022 29.5077V33.0201H8.78471L9.22376 29.5077H15.0022ZM17.1097 29.5077H22.8882L23.3272 33.0201H17.1097V29.5077ZM17.1097 27.4003V23.8879H22.1857L22.6247 27.4003H17.1097ZM2.75895 23.8879H7.80251L7.36346 27.4003H1.88085L2.75895 23.8879ZM1.354 29.5077H7.10003L6.66099 33.0201H0.475902L1.354 29.5077ZM25.4509 33.0201L25.0119 29.5077H30.7579L31.636 33.0201H25.4509Z" fill="#6AA9FF"></path>
        <path id="38f09e836cdfa189ad68afb3a32ad873" d="M31.198 22.5786C31.0807 22.1096 30.6593 21.7805 30.1757 21.7805H16.056V35.1275H32.9856C33.3101 35.1275 33.6165 34.978 33.8162 34.7222C34.0159 34.4665 34.0866 34.133 34.0079 33.8182L31.198 22.5786ZM17.1097 23.8879H22.1857L22.6248 27.4003H17.1097V23.8879ZM17.1097 33.0201V29.5077H22.8882L23.3272 33.0201H17.1097ZM24.3094 23.8879H29.353L30.2311 27.4003H24.7485L24.3094 23.8879ZM25.451 33.0201L25.0119 29.5077H30.758L31.636 33.0201H25.451Z" fill="#4C88FF"></path>
      </g>
    </g>
  </g>
</svg>