<svg width="32" height="48" viewBox="0 0 32 48" fill="none" xmlns="http://www.w3.org/2000/svg">
  <g id="ac282a7be043509d99b95ad52197c6d7">
    <path id="e557c6535aa3238c1bdd5332d2b21839" d="M31.3003 15.3376C31.3003 6.95653 24.5781 0.145739 16.2314 0.00218417C7.83863 -0.141737 0.83741 6.55882 0.629769 14.9505C0.492806 20.4836 3.29835 25.4102 7.63721 28.2198C8.2107 28.5912 8.70581 29.0716 9.07642 29.6458C10.8313 32.3635 12.5624 35.2807 14.3608 40.4252C14.8915 41.9436 17.0349 41.9406 17.5655 40.4223C19.9148 33.7009 23.0521 29.3269 22.9873 29.4268C23.266 28.9976 23.6322 28.6314 24.0662 28.3608C28.4127 25.6505 31.3003 20.8271 31.3003 15.3376Z" fill="#F25C5C"></path>
    <path id="9a1182b1197c9998791cdf545b165518" d="M15.9626 25.8193C10.0758 25.8193 5.28614 21.03 5.28614 15.1428C5.28614 9.25596 10.0758 4.46629 15.9626 4.46629C21.8495 4.46629 26.6392 9.25596 26.6392 15.1428C26.6392 21.03 21.8495 25.8193 15.9626 25.8193Z" fill="#00C3FF"></path>
    <path id="466f8862ba904612c28fb62ae7f77138" d="M8.18397 15.1428C8.18397 9.74705 12.2072 5.27415 17.4114 4.56517C16.9375 4.50035 16.4541 4.46629 15.9626 4.46629C10.0758 4.46629 5.28614 9.2556 5.28614 15.1424C5.28614 21.0296 10.0758 25.8189 15.9626 25.8189C16.4541 25.8189 16.9375 25.7849 17.4114 25.7204C12.2072 25.0114 8.18397 20.5385 8.18397 15.1428V15.1428Z" fill="#00AAF0"></path>
    <path id="86e44937883304c5fd5126d6ab876b9c" d="M18.0544 45.9082C18.0544 47.0636 17.118 48 15.9626 48C14.8073 48 13.8708 47.0636 13.8708 45.9082C13.8708 44.7528 14.8073 43.8164 15.9626 43.8164C17.118 43.8164 18.0544 44.7528 18.0544 45.9082Z" fill="#F25C5C"></path>
    <path id="d420d76e0fe93a7aff97a0ec4b14ad07" d="M17.2583 40.4252C15.4602 35.2807 13.7288 32.3635 11.9742 29.6458C11.6036 29.0716 11.1085 28.5912 10.5347 28.2198C6.19617 25.4102 3.39063 20.4836 3.52759 14.9505C3.72059 7.13524 9.80737 0.78734 17.422 0.0688345C17.0294 0.0318473 16.6324 0.00914217 16.2314 0.00218417C7.83863 -0.141737 0.83741 6.55882 0.629769 14.9505C0.492806 20.4836 3.29835 25.4102 7.63721 28.2198C8.2107 28.5912 8.70581 29.0716 9.07642 29.6458C10.8313 32.3635 12.5624 35.2807 14.3608 40.4252C14.8497 41.8242 16.7068 41.9307 17.411 40.7512C17.3517 40.6516 17.2997 40.5435 17.2583 40.4252Z" fill="#E54A4A"></path>
    <path id="881d51de66d14af61847022e68c379f8" d="M16.382 45.9082C16.382 45.2241 16.7104 44.6165 17.2184 44.2349C16.8683 43.972 16.434 43.8164 15.9626 43.8164C14.8073 43.8164 13.8708 44.7528 13.8708 45.9082C13.8708 47.0632 14.8073 48 15.9626 48C16.434 48 16.8687 47.8439 17.2184 47.581C16.7104 47.1994 16.382 46.5922 16.382 45.9082V45.9082Z" fill="#E54A4A"></path>
    <path id="d0c8af7c2b3bdbd2ad6017dfab21409e" d="M25.0909 16.159H21.4545C20.9525 16.159 20.5455 15.752 20.5455 15.2499C20.5455 14.7478 20.9525 14.3408 21.4545 14.3408H25.0909C25.593 14.3408 26 14.7478 26 15.2499C26 15.752 25.593 16.159 25.0909 16.159Z" fill="#FF8859"></path>
    <path id="0470fb0735a44df7405c80f15bff73cf" d="M10.5455 16.159H6.90909C6.40703 16.159 6 15.752 6 15.2499C6 14.7478 6.40703 14.3408 6.90909 14.3408H10.5455C11.0475 14.3408 11.4545 14.7478 11.4545 15.2499C11.4545 15.752 11.0476 16.159 10.5455 16.159Z" fill="#FFB655"></path>
    <path id="1767af75e11911c3e303540f8e81bc12" d="M16 10.7045C15.4979 10.7045 15.0909 10.2974 15.0909 9.79536V6.159C15.0909 5.65694 15.4979 5.24991 16 5.24991C16.5021 5.24991 16.9091 5.65694 16.9091 6.159V9.79536C16.9091 10.2975 16.5021 10.7045 16 10.7045Z" fill="#FFB655"></path>
    <path id="7ae595e30fdac5288c4be28cc3b224fb" d="M16 10.7045C16.5021 10.7045 16.9091 10.2974 16.9091 9.79536V6.159C16.9091 5.65694 16.5021 5.24991 16 5.24991V10.7045Z" fill="#FF8859"></path>
    <path id="f2e804e45e1dab1163588130bcd0d13e" d="M19.2141 12.0358C18.8591 11.6807 18.8591 11.1052 19.2141 10.7501L21.7854 8.17881C22.1405 7.82378 22.7161 7.82378 23.0711 8.17881C23.4261 8.53384 23.4261 9.10941 23.0711 9.46444L20.4997 12.0358C20.1448 12.3908 19.5691 12.3908 19.2141 12.0358V12.0358Z" fill="#FF8859"></path>
    <path id="598aedbf5ab10488fbb49f9e5081f0f9" d="M11.5002 12.0358L8.92891 9.46444C8.57388 9.10941 8.57388 8.53384 8.92891 8.17881C9.28394 7.82378 9.85951 7.82378 10.2145 8.17881L12.7859 10.7501C13.1409 11.1052 13.1409 11.6807 12.7859 12.0358C12.4308 12.3908 11.8553 12.3908 11.5002 12.0358V12.0358Z" fill="#FFB655"></path>
    <path id="ec9bf698f00b2e148b63394a5fc4bc3a" d="M21.1376 17.9772H10.8625C10.4774 17.9772 10.134 17.7345 10.0055 17.3714C9.76054 16.6795 9.63636 15.9658 9.63636 15.2499C9.63636 11.741 12.4911 8.88628 16 8.88628C19.5089 8.88628 22.3636 11.741 22.3636 15.2499C22.3636 15.9658 22.2395 16.6795 21.9945 17.3714C21.866 17.7345 21.5227 17.9772 21.1376 17.9772V17.9772Z" fill="#FFF04A"></path>
    <path id="2776876fd57442dc08160f9733ff15a9" d="M21.1376 17.9772C21.5227 17.9772 21.8661 17.7345 21.9946 17.3714C22.2395 16.6795 22.3636 15.9658 22.3636 15.2499C22.3636 11.741 19.5089 8.88628 16 8.88628V17.9772H21.1376Z" fill="#FFB655"></path>
    <mask id="8b0828b9a9fac0c800de0ac00cb62104" style="mask-type:alpha" maskUnits="userSpaceOnUse" x="5" y="4" width="22" height="22">
      <path id="5259f7bf76b837bc1bfa1c3cee7e7d71" d="M15.9626 25.8193C10.0758 25.8193 5.28614 21.03 5.28614 15.1428C5.28614 9.25596 10.0758 4.46629 15.9626 4.46629C21.8495 4.46629 26.6392 9.25596 26.6392 15.1428C26.6392 21.03 21.8495 25.8193 15.9626 25.8193Z" fill="#00C3FF"></path>
    </mask>
    <g mask="url(#8b0828b9a9fac0c800de0ac00cb62104)">
      <path id="bb14aaf15a988a07145b68466e331ebd" d="M6.57814 19.7031H25.4218L27.2968 27.2031H4.70315L6.57814 19.7031Z" fill="#AED0FF"></path>
      <path id="827ee6e21a7f7516e29431342bf2b0c1" d="M16 27.2031H27.2968L25.4218 19.7031H16V27.2031Z" fill="#6AA9FF"></path>
      <path id="5cca38da0d97dea2cca9dec2680e9783" d="M27.979 27.0326L26.104 19.5326C26.0257 19.2196 25.7445 19 25.4218 19H6.57814C6.2555 19 5.97425 19.2196 5.89601 19.5326L4.02102 27.0326C3.96847 27.2426 4.01567 27.4652 4.14894 27.6358C4.2822 27.8065 4.48663 27.9062 4.70314 27.9062H27.2968C27.5134 27.9062 27.7178 27.8065 27.851 27.6358C27.9843 27.4652 28.0315 27.2427 27.979 27.0326V27.0326ZM25.4588 22.75H21.8003L21.5074 20.4062H24.8728L25.4588 22.75ZM15.2969 20.4062V22.75H11.6168L11.9097 20.4062H15.2969ZM15.2969 24.1562V26.5H11.148L11.441 24.1562H15.2969ZM16.7031 24.1562H20.559L20.852 26.5H16.7031V24.1562ZM16.7031 22.75V20.4062H20.0902L20.3832 22.75H16.7031ZM7.12714 20.4062H10.4926L10.1996 22.75H6.5412L7.12714 20.4062ZM6.18964 24.1562H10.0239L9.7309 26.5H5.6037L6.18964 24.1562ZM22.2691 26.5L21.9761 24.1562H25.8103L26.3963 26.5H22.2691Z" fill="#6AA9FF"></path>
      <path id="92a95ed86f3b1d0d2fc974ff0307cfae" d="M26.104 19.5326C26.0257 19.2196 25.7445 19 25.4219 19H16V27.9062H27.2969C27.5134 27.9062 27.7178 27.8065 27.8511 27.6358C27.9843 27.4651 28.0315 27.2426 27.979 27.0326L26.104 19.5326ZM16.7031 20.4062H20.0902L20.3832 22.75H16.7031V20.4062ZM16.7031 26.5V24.1562H20.559L20.852 26.5H16.7031ZM21.5074 20.4062H24.8729L25.4588 22.75H21.8003L21.5074 20.4062ZM22.2691 26.5L21.9761 24.1562H25.8104L26.3963 26.5H22.2691Z" fill="#4C88FF"></path>
    </g>
  </g>
</svg>