<svg viewBox="0 0 22 17" xmlns="http://www.w3.org/2000/svg" fill="currentColor" width="1em">
    <g fill-rule="evenodd">
        <path d="M2.143 6.251h16.875a.75.75 0 1 0 0-1.5H2.143a.75.75 0 0 0 0 1.5z" fill-rule="nonzero"/>
        <path d="M8.5 14.597h4.375v-3.75H8.5z"/>
        <path d="M13.057 13.308H8.605A2.597 2.597 0 0 0 6 15.898v.153h9.662v-.153c0-1.43-1.166-2.59-2.605-2.59z"/>
        <path d="M18.151.25H3.338a.75.75 0 0 0-.728.57L.272 10.308a.75.75 0 0 0 .728.93h19.49a.75.75 0 0 0 .728-.93L18.879.821a.75.75 0 0 0-.728-.571zm-.587 1.5l1.968 7.986H1.957L3.926 1.75h13.638z"
              fill-rule="nonzero"/>
        <path d="M8.605 10.548l.779-9.487A.75.75 0 0 0 7.889.94l-.78 9.486a.75.75 0 0 0 1.496.123zm6.493-.123l-.78-9.486a.75.75 0 1 0-1.494.122l.78 9.487a.75.75 0 0 0 1.494-.123z"
              fill-rule="nonzero"/>
    </g>
</svg>
