<svg width="32" height="48" viewBox="0 0 32 48" fill="none" xmlns="http://www.w3.org/2000/svg">
<path d="M31.3003 15.3377C31.3003 6.95662 24.5781 0.14583 16.2314 0.00227572C7.83863 -0.141645 0.83741 6.55891 0.629769 14.9506C0.492806 20.4837 3.29835 25.4103 7.63721 28.2199C8.2107 28.5912 8.70581 29.0717 9.07642 29.6459C10.8313 32.3636 12.5624 35.2808 14.3608 40.4253C14.8915 41.9437 17.0349 41.9407 17.5655 40.4224C19.9148 33.701 23.0521 29.327 22.9873 29.4269C23.266 28.9977 23.6322 28.6315 24.0662 28.3609C28.4127 25.6506 31.3003 20.8272 31.3003 15.3377Z" fill="#F25C5C"/>
<path d="M18.0544 45.9083C18.0544 47.0636 17.118 48 15.9626 48C14.8073 48 13.8708 47.0636 13.8708 45.9083C13.8708 44.7529 14.8073 43.8165 15.9626 43.8165C17.118 43.8165 18.0544 44.7529 18.0544 45.9083Z" fill="#F25C5C"/>
<path d="M17.2583 40.4253C15.4602 35.2808 13.7288 32.3636 11.9742 29.6459C11.6036 29.0717 11.1085 28.5912 10.5347 28.2199C6.19617 25.4103 3.39063 20.4837 3.52759 14.9506C3.72059 7.13533 9.80737 0.787431 17.422 0.0689261C17.0294 0.0319388 16.6324 0.00923372 16.2314 0.00227572C7.83863 -0.141645 0.83741 6.55891 0.629769 14.9506C0.492806 20.4837 3.29835 25.4103 7.63721 28.2199C8.2107 28.5912 8.70581 29.0717 9.07642 29.6459C10.8313 32.3636 12.5624 35.2808 14.3608 40.4253C14.8497 41.8243 16.7068 41.9308 17.411 40.7513C17.3517 40.6517 17.2997 40.5436 17.2583 40.4253Z" fill="#E54A4A"/>
<path d="M16.382 45.9083C16.382 45.2242 16.7104 44.6166 17.2184 44.235C16.8683 43.9721 16.434 43.8165 15.9626 43.8165C14.8073 43.8165 13.8708 44.7529 13.8708 45.9083C13.8708 47.0633 14.8073 48 15.9626 48C16.434 48 16.8687 47.844 17.2184 47.5811C16.7104 47.1995 16.382 46.5923 16.382 45.9083V45.9083Z" fill="#E54A4A"/>
<g clip-path="url(#clip0_366_92)">
<path d="M16.175 26.35C10.0133 26.35 5 21.3371 5 15.175C5 9.0133 10.0133 4 16.175 4C22.3367 4 27.35 9.0133 27.35 15.175C27.35 21.3371 22.3367 26.35 16.175 26.35Z" fill="#B5728E"/>
<path d="M8.03313 15.175C8.03313 9.52732 12.2442 4.84558 17.6914 4.10349C17.1954 4.03565 16.6894 4 16.175 4C10.0133 4 5 9.01292 5 15.1746C5 21.3367 10.0133 26.3496 16.175 26.3496C16.6894 26.3496 17.1954 26.314 17.6914 26.2465C12.2442 25.5044 8.03313 20.8227 8.03313 15.175V15.175Z" fill="#776E99"/>
<path d="M25.7295 16.2386H21.9233C21.3978 16.2386 20.9718 15.8126 20.9718 15.2871C20.9718 14.7616 21.3978 14.3356 21.9233 14.3356H25.7295C26.255 14.3356 26.681 14.7616 26.681 15.2871C26.681 15.8127 26.255 16.2386 25.7295 16.2386Z" fill="#DA7F7D"/>
<path d="M10.5049 16.2386H6.69873C6.17323 16.2386 5.74719 15.8126 5.74719 15.2871C5.74719 14.7616 6.17323 14.3356 6.69873 14.3356H10.5049C11.0304 14.3356 11.4564 14.7616 11.4564 15.2871C11.4564 15.8127 11.0304 16.2386 10.5049 16.2386Z" fill="#EBB58A"/>
<path d="M16.2141 10.5294C15.6886 10.5294 15.2626 10.1034 15.2626 9.57789V5.77174C15.2626 5.24624 15.6886 4.8202 16.2141 4.8202C16.7396 4.8202 17.1656 5.24624 17.1656 5.77174V9.57789C17.1656 10.1035 16.7397 10.5294 16.2141 10.5294Z" fill="#EBB58A"/>
<path d="M16.2141 10.5294C16.7396 10.5294 17.1656 10.1034 17.1656 9.57789V5.77174C17.1656 5.24624 16.7396 4.8202 16.2141 4.8202V10.5294Z" fill="#DA7F7D"/>
<path d="M19.5783 11.9229C19.2067 11.5513 19.2067 10.9489 19.5783 10.5772L22.2697 7.88586C22.6413 7.51425 23.2437 7.51425 23.6153 7.88586C23.9869 8.25746 23.9869 8.85991 23.6153 9.23152L20.9239 11.9229C20.5524 12.2945 19.9499 12.2945 19.5783 11.9229V11.9229Z" fill="#DA7F7D"/>
<path d="M11.5042 11.9229L8.81285 9.23152C8.44124 8.85991 8.44124 8.25746 8.81285 7.88586C9.18445 7.51425 9.7869 7.51425 10.1585 7.88586L12.8499 10.5772C13.2215 10.9489 13.2215 11.5513 12.8499 11.9229C12.4783 12.2945 11.8758 12.2945 11.5042 11.9229V11.9229Z" fill="#EBB58A"/>
<path d="M21.5916 18.1417H10.8367C10.4336 18.1417 10.0742 17.8877 9.93966 17.5077C9.68332 16.7835 9.55334 16.0364 9.55334 15.2871C9.55334 11.6144 12.5414 8.62636 16.2141 8.62636C19.8868 8.62636 22.8749 11.6144 22.8749 15.2871C22.8749 16.0364 22.7449 16.7835 22.4885 17.5077C22.354 17.8877 21.9946 18.1417 21.5916 18.1417V18.1417Z" fill="#FFF2BD"/>
<path d="M21.5916 18.1417C21.9946 18.1417 22.3541 17.8877 22.4886 17.5077C22.7449 16.7835 22.8749 16.0364 22.8749 15.2871C22.8749 11.6144 19.8868 8.62636 16.2141 8.62636V18.1417H21.5916Z" fill="#EBB58A"/>
<mask id="mask0_366_92" style="mask-type:alpha" maskUnits="userSpaceOnUse" x="5" y="4" width="23" height="23">
<path d="M16.175 26.35C10.0133 26.35 5 21.3371 5 15.175C5 9.0133 10.0133 4 16.175 4C22.3367 4 27.35 9.0133 27.35 15.175C27.35 21.3371 22.3367 26.35 16.175 26.35Z" fill="#00C3FF"/>
</mask>
<g mask="url(#mask0_366_92)">
<g filter="url(#filter0_d_366_92)">
<path d="M4.52472 16.5719H27.8253L30.1438 26.35H2.20625L4.52472 16.5719Z" fill="#8DA8CC"/>
<path d="M16.175 26.35H30.1438L27.8253 16.5719H16.175V26.35Z" fill="#5689CE"/>
<path d="M30.8165 25.3223L28.5248 16.4999C28.4291 16.1318 28.0854 15.8734 27.691 15.8734H4.65898C4.26463 15.8734 3.92087 16.1318 3.82525 16.4999L1.5335 25.3223C1.46928 25.5694 1.52697 25.8312 1.68986 26.0319C1.85274 26.2327 2.1026 26.35 2.36724 26.35H29.9828C30.2474 26.35 30.4973 26.2327 30.6601 26.0319C30.823 25.8312 30.8807 25.5694 30.8165 25.3223V25.3223ZM27.7362 20.2846H23.2646L22.9065 17.5276H27.02L27.7362 20.2846ZM15.3156 17.5276V20.2846H10.8175L11.1756 17.5276H15.3156ZM15.3156 21.9388V24.6958H10.2446L10.6027 21.9388H15.3156ZM17.0344 21.9388H21.7473L22.1054 24.6958H17.0344V21.9388ZM17.0344 20.2846V17.5276H21.1744L21.5325 20.2846H17.0344ZM5.33001 17.5276H9.44352L9.08543 20.2846H4.61384L5.33001 17.5276ZM4.18413 21.9388H8.87058L8.51249 24.6958H3.46796L4.18413 21.9388ZM23.8375 24.6958L23.4794 21.9388H28.1659L28.882 24.6958H23.8375Z" fill="#5689CE"/>
<path d="M28.5248 16.4999C28.4291 16.1318 28.0854 15.8734 27.691 15.8734H16.175V26.35H29.9828C30.2474 26.35 30.4973 26.2327 30.6601 26.0319C30.823 25.8311 30.8807 25.5694 30.8165 25.3223L28.5248 16.4999ZM17.0344 17.5276H21.1744L21.5325 20.2846H17.0344V17.5276ZM17.0344 24.6958V21.9388H21.7473L22.1054 24.6958H17.0344ZM22.9065 17.5276H27.02L27.7362 20.2846H23.2646L22.9065 17.5276ZM23.8375 24.6958L23.4794 21.9388H28.1659L28.882 24.6958H23.8375Z" fill="#3A69C7"/>
</g>
</g>
</g>
<defs>
<filter id="filter0_d_366_92" x="-2.49219" y="15.8734" width="37.3344" height="18.4766" filterUnits="userSpaceOnUse" color-interpolation-filters="sRGB">
<feFlood flood-opacity="0" result="BackgroundImageFix"/>
<feColorMatrix in="SourceAlpha" type="matrix" values="0 0 0 0 0 0 0 0 0 0 0 0 0 0 0 0 0 0 127 0" result="hardAlpha"/>
<feOffset dy="4"/>
<feGaussianBlur stdDeviation="2"/>
<feComposite in2="hardAlpha" operator="out"/>
<feColorMatrix type="matrix" values="0 0 0 0 0 0 0 0 0 0 0 0 0 0 0 0 0 0 0.25 0"/>
<feBlend mode="normal" in2="BackgroundImageFix" result="effect1_dropShadow_366_92"/>
<feBlend mode="normal" in="SourceGraphic" in2="effect1_dropShadow_366_92" result="shape"/>
</filter>
<clipPath id="clip0_366_92">
<rect width="22.35" height="22.35" fill="white" transform="translate(5 4)"/>
</clipPath>
</defs>
</svg>
